<svg xmlns="http://www.w3.org/2000/svg" xmlns:xlink="http://www.w3.org/1999/xlink" width="1024" zoomAndPan="magnify" viewBox="0 0 768 767.999994" height="1024" preserveAspectRatio="xMidYMid meet" version="1.0"><defs><clipPath id="78883a3aa8"><path d="M 121.351562 437 L 360 437 L 360 634 L 121.351562 634 Z M 121.351562 437 " clip-rule="nonzero"/></clipPath><clipPath id="425939b202"><path d="M 408 437 L 646 437 L 646 634.5 L 408 634.5 Z M 408 437 " clip-rule="nonzero"/></clipPath><clipPath id="f8359b7cdc"><path d="M 482 133.5 L 646 133.5 L 646 298 L 482 298 Z M 482 133.5 " clip-rule="nonzero"/></clipPath><clipPath id="5e779a0bb2"><path d="M 121.351562 152 L 640 152 L 640 427 L 121.351562 427 Z M 121.351562 152 " clip-rule="nonzero"/></clipPath></defs><g clip-path="url(#78883a3aa8)"><path fill="#156595" d="M 347.449219 571.367188 C 347.449219 585.9375 335.316406 598.078125 320.753906 598.078125 L 145.21875 598.078125 L 160.589844 585.125 C 163.015625 582.699219 163.824219 579.460938 161.398438 576.222656 C 158.972656 573.796875 155.734375 572.988281 152.5 575.414062 L 124.1875 598.886719 C 123.378906 599.695312 123.378906 599.695312 123.378906 600.503906 C 123.378906 600.503906 123.378906 601.3125 122.570312 601.3125 C 122.570312 602.125 121.761719 602.933594 121.761719 603.742188 C 121.761719 604.550781 121.761719 605.359375 122.570312 606.171875 C 122.570312 606.171875 122.570312 606.980469 123.378906 606.980469 C 123.378906 607.789062 124.1875 607.789062 124.1875 608.597656 L 152.5 632.070312 C 153.308594 632.878906 154.925781 633.6875 156.542969 633.6875 C 158.164062 633.6875 159.78125 632.878906 161.398438 631.261719 C 163.824219 628.832031 163.015625 624.785156 160.589844 622.359375 L 145.21875 610.21875 L 320.753906 610.21875 C 342.597656 610.21875 359.582031 592.410156 359.582031 571.367188 L 359.582031 437.820312 L 347.449219 437.820312 Z M 347.449219 571.367188 " fill-opacity="1" fill-rule="nonzero"/></g><path fill="#156595" d="M 288.398438 487.191406 L 288.398438 437.011719 L 276.265625 437.011719 L 276.265625 487.191406 C 276.265625 501.761719 264.132812 513.902344 249.570312 513.902344 L 176.769531 513.902344 L 192.136719 500.953125 C 194.5625 498.523438 195.371094 495.285156 192.945312 492.050781 C 190.519531 489.621094 187.285156 488.8125 184.046875 491.238281 L 155.734375 514.710938 C 154.117188 515.519531 153.308594 517.140625 153.308594 519.566406 C 153.308594 521.1875 154.117188 522.804688 155.734375 524.425781 L 184.046875 547.894531 C 184.855469 548.707031 186.476562 549.515625 188.09375 549.515625 C 189.710938 549.515625 191.328125 548.707031 192.945312 547.085938 C 195.371094 544.660156 194.5625 540.613281 192.136719 538.183594 L 176.769531 525.234375 L 249.570312 525.234375 C 271.410156 526.042969 288.398438 509.046875 288.398438 487.191406 Z M 288.398438 487.191406 " fill-opacity="1" fill-rule="nonzero"/><path fill="#156595" d="M 574.753906 547.894531 C 576.375 549.515625 577.992188 550.324219 579.609375 550.324219 C 581.226562 550.324219 582.035156 549.515625 583.652344 548.707031 L 611.964844 525.234375 C 613.582031 524.425781 614.390625 521.996094 614.390625 520.378906 C 614.390625 518.757812 613.582031 517.140625 611.964844 515.519531 L 583.652344 492.050781 C 581.226562 489.621094 577.183594 490.429688 574.753906 492.859375 C 572.328125 495.285156 573.136719 499.332031 575.566406 501.761719 L 590.933594 514.710938 L 518.132812 514.710938 C 503.570312 514.710938 491.4375 502.570312 491.4375 488.003906 L 491.4375 438.632812 L 479.304688 438.632812 L 479.304688 488.003906 C 479.304688 509.855469 497.097656 526.851562 518.132812 526.851562 L 590.933594 526.851562 L 575.566406 539.800781 C 573.136719 541.421875 572.328125 545.46875 574.753906 547.894531 Z M 574.753906 547.894531 " fill-opacity="1" fill-rule="nonzero"/><g clip-path="url(#425939b202)"><path fill="#156595" d="M 645.132812 601.3125 C 645.132812 600.503906 644.324219 600.503906 644.324219 599.695312 L 616.011719 576.222656 C 613.582031 573.796875 609.539062 574.605469 607.921875 577.03125 C 605.496094 579.460938 606.304688 583.507812 608.730469 585.9375 L 624.101562 598.886719 L 446.945312 598.886719 C 432.386719 598.886719 420.253906 586.746094 420.253906 572.175781 L 420.253906 437.820312 L 408.117188 437.820312 L 408.117188 571.367188 C 408.117188 593.21875 425.914062 610.21875 446.945312 610.21875 L 622.480469 610.21875 L 607.113281 623.167969 C 604.6875 625.59375 603.875 628.832031 606.304688 632.070312 C 607.113281 633.6875 609.539062 634.5 611.15625 634.5 C 612.773438 634.5 613.582031 633.6875 615.203125 632.878906 L 643.511719 609.40625 C 644.324219 609.40625 644.324219 608.597656 644.324219 607.789062 C 644.324219 607.789062 644.324219 607.789062 644.324219 606.980469 C 644.324219 606.171875 645.132812 605.359375 645.132812 604.550781 C 645.941406 603.742188 645.132812 602.933594 645.132812 601.3125 Z M 645.132812 601.3125 " fill-opacity="1" fill-rule="nonzero"/></g><g clip-path="url(#f8359b7cdc)"><path fill="#156595" d="M 641.085938 197.4375 L 629.761719 195.011719 C 628.144531 190.964844 626.527344 186.917969 624.910156 182.871094 L 630.570312 173.15625 C 632.1875 170.730469 632.1875 167.492188 629.761719 165.0625 L 613.582031 148.875 C 611.15625 146.449219 607.921875 146.449219 605.496094 148.066406 L 595.789062 154.542969 C 591.742188 152.113281 587.699219 150.496094 583.652344 149.6875 L 581.226562 138.355469 C 580.417969 135.117188 577.992188 133.5 575.566406 133.5 L 552.105469 133.5 C 548.871094 133.5 546.445312 135.925781 546.445312 138.355469 L 544.015625 149.6875 C 539.972656 151.304688 535.117188 152.921875 531.882812 154.542969 L 522.175781 148.066406 C 519.75 146.449219 516.511719 146.449219 514.085938 148.875 L 497.910156 165.875 C 495.480469 168.300781 495.480469 171.539062 497.097656 173.96875 L 503.570312 183.679688 C 501.144531 187.726562 499.527344 191.773438 498.71875 195.820312 L 487.390625 197.4375 C 484.15625 198.25 482.539062 200.675781 482.539062 203.105469 L 482.539062 226.574219 C 482.539062 229.8125 484.964844 232.242188 487.390625 232.242188 L 498.71875 234.667969 C 500.335938 238.714844 501.953125 242.761719 503.570312 246.808594 L 497.097656 257.332031 C 495.480469 259.761719 495.480469 262.996094 497.910156 265.425781 L 514.085938 282.421875 C 516.511719 284.851562 519.75 284.851562 522.175781 283.230469 L 531.882812 276.757812 C 535.925781 279.183594 539.972656 280.804688 544.015625 281.613281 L 546.445312 292.945312 C 547.253906 296.183594 549.679688 297.800781 552.105469 297.800781 L 575.566406 297.800781 C 578.800781 297.800781 581.226562 295.371094 581.226562 292.945312 L 583.652344 281.613281 C 583.652344 281.613281 584.460938 281.613281 584.460938 281.613281 C 588.507812 280.804688 592.550781 279.183594 595.789062 276.757812 L 605.496094 283.230469 C 607.921875 284.851562 611.15625 284.851562 613.582031 282.421875 L 630.570312 265.425781 C 632.996094 262.996094 632.996094 259.761719 631.378906 257.332031 L 624.910156 247.621094 C 627.335938 243.574219 628.953125 239.527344 629.761719 235.480469 L 641.085938 233.050781 C 644.324219 232.242188 645.941406 229.8125 645.941406 227.386719 L 645.941406 203.914062 C 645.941406 200.675781 643.511719 198.25 641.085938 197.4375 Z M 564.238281 241.144531 C 559.386719 241.144531 555.339844 239.527344 550.488281 237.097656 C 545.632812 234.667969 542.398438 229.8125 539.972656 224.957031 C 538.355469 221.71875 538.355469 218.480469 538.355469 215.246094 C 538.355469 201.484375 549.679688 189.34375 564.238281 189.34375 C 577.992188 189.34375 590.125 200.675781 590.125 215.246094 C 589.316406 229.003906 577.992188 241.144531 564.238281 241.144531 Z M 564.238281 241.144531 " fill-opacity="1" fill-rule="nonzero"/></g><path fill="#156595" d="M 394.367188 339.886719 C 411.355469 339.886719 425.914062 326.128906 425.914062 308.324219 C 425.914062 290.515625 412.164062 276.757812 394.367188 276.757812 C 376.570312 276.757812 362.820312 290.515625 362.820312 308.324219 C 362.820312 326.128906 377.378906 339.886719 394.367188 339.886719 Z M 394.367188 339.886719 " fill-opacity="1" fill-rule="nonzero"/><path fill="#156595" d="M 328.84375 324.511719 C 330.460938 330.984375 332.890625 337.460938 336.933594 343.933594 C 338.550781 346.363281 337.742188 348.789062 336.933594 350.410156 L 329.652344 360.929688 L 342.597656 373.882812 L 353.113281 366.597656 C 354.730469 364.976562 357.964844 364.976562 359.582031 366.597656 C 366.054688 370.644531 372.527344 373.070312 378.996094 374.691406 C 381.425781 375.5 383.042969 377.117188 383.851562 379.546875 L 386.277344 392.496094 L 404.074219 392.496094 L 406.5 379.546875 C 407.308594 377.117188 408.925781 375.5 411.355469 374.691406 C 417.824219 373.070312 424.296875 370.644531 430.769531 366.597656 C 433.195312 364.976562 435.621094 365.789062 437.238281 366.597656 L 447.753906 373.882812 L 460.699219 360.929688 L 453.417969 350.410156 C 451.800781 348.789062 451.800781 345.554688 453.417969 343.933594 C 457.460938 337.460938 459.890625 330.984375 461.507812 324.511719 C 462.316406 322.082031 463.933594 320.464844 466.359375 319.652344 L 479.304688 317.226562 L 479.304688 299.417969 L 464.742188 296.992188 C 462.316406 296.183594 460.699219 294.5625 459.890625 292.136719 C 458.269531 285.660156 455.84375 279.183594 451.800781 272.710938 C 450.183594 270.28125 450.992188 267.855469 451.800781 266.234375 L 459.082031 255.714844 L 446.136719 243.574219 L 435.621094 250.855469 C 434.003906 252.476562 430.769531 252.476562 429.148438 250.855469 C 422.679688 246.808594 416.207031 244.382812 409.734375 242.761719 C 407.308594 241.953125 405.691406 240.335938 404.882812 237.90625 L 402.457031 224.957031 L 384.660156 224.957031 L 383.042969 237.90625 C 382.234375 240.335938 380.613281 241.953125 378.1875 242.761719 C 370.90625 244.382812 364.4375 246.808594 358.773438 250.855469 C 356.347656 252.476562 353.921875 251.667969 352.304688 250.855469 L 341.785156 243.574219 L 328.84375 255.714844 L 336.125 266.234375 C 337.742188 267.855469 337.742188 271.089844 336.125 272.710938 C 332.078125 279.183594 329.652344 285.660156 328.035156 292.136719 C 327.226562 294.5625 325.609375 296.183594 323.183594 296.992188 L 311.046875 299.417969 L 311.046875 317.226562 L 323.992188 319.652344 C 326.417969 319.652344 328.84375 322.082031 328.84375 324.511719 Z M 394.367188 264.617188 C 418.632812 264.617188 438.046875 284.042969 438.046875 308.324219 C 438.046875 332.601562 418.632812 352.027344 394.367188 352.027344 C 370.097656 352.027344 350.683594 332.601562 350.683594 308.324219 C 350.683594 284.042969 370.90625 264.617188 394.367188 264.617188 Z M 394.367188 264.617188 " fill-opacity="1" fill-rule="nonzero"/><g clip-path="url(#5e779a0bb2)"><path fill="#156595" d="M 187.285156 424.871094 C 187.285156 424.871094 188.09375 424.871094 188.09375 424.871094 L 560.195312 426.492188 C 603.875 425.679688 639.46875 389.257812 639.46875 345.554688 C 639.46875 325.320312 632.1875 306.703125 619.246094 292.136719 C 616.011719 294.5625 612.773438 295.371094 608.730469 295.371094 C 605.496094 295.371094 601.449219 294.5625 598.214844 292.136719 L 594.167969 289.707031 C 594.167969 289.707031 594.167969 289.707031 593.359375 289.707031 L 593.359375 294.5625 C 591.742188 303.464844 584.460938 309.941406 575.566406 309.941406 L 552.105469 309.941406 C 543.207031 309.941406 535.925781 303.464844 534.308594 295.371094 L 533.5 290.515625 C 533.5 290.515625 533.5 290.515625 532.691406 290.515625 L 528.648438 292.945312 C 525.410156 295.371094 522.175781 296.183594 518.132812 296.183594 C 513.277344 296.183594 508.425781 293.753906 505.1875 290.515625 L 489.011719 274.328125 C 482.539062 267.855469 481.730469 258.140625 486.582031 250.855469 L 489.820312 246.808594 C 489.820312 246.808594 489.820312 246.808594 489.820312 246 L 484.964844 245.191406 C 476.066406 243.574219 469.597656 236.289062 469.597656 227.386719 L 469.597656 203.914062 C 469.597656 198.25 472.023438 192.582031 476.875 189.34375 C 459.082031 165.875 431.578125 152.113281 401.648438 152.113281 C 362.820312 152.113281 328.84375 174.777344 314.285156 210.386719 C 302.960938 204.722656 290.824219 201.484375 277.882812 201.484375 C 239.863281 201.484375 206.699219 228.195312 198.609375 265.425781 C 155.734375 267.855469 121.761719 302.65625 121.761719 346.363281 C 121.761719 384.402344 149.265625 417.585938 187.285156 424.871094 Z M 298.914062 294.5625 C 298.914062 291.324219 301.339844 288.898438 303.769531 288.898438 L 318.328125 286.46875 C 319.945312 280.804688 322.371094 275.949219 324.800781 271.089844 L 316.710938 258.949219 C 315.09375 256.523438 315.09375 253.285156 317.519531 250.855469 L 336.933594 231.433594 C 339.359375 229.003906 342.597656 229.003906 345.023438 230.621094 L 357.15625 238.714844 C 362.011719 236.289062 367.671875 233.859375 372.527344 232.242188 L 374.953125 217.671875 C 375.761719 214.433594 378.1875 212.816406 380.613281 212.816406 L 408.117188 212.816406 C 411.355469 212.816406 413.78125 215.246094 413.78125 217.671875 L 416.207031 232.242188 C 421.871094 233.859375 426.722656 236.289062 431.578125 238.714844 L 443.710938 230.621094 C 446.136719 229.003906 449.375 229.003906 451.800781 231.433594 L 471.214844 250.855469 C 473.640625 253.285156 473.640625 256.523438 472.023438 258.949219 L 464.742188 270.28125 C 467.167969 275.136719 469.597656 280.804688 471.214844 285.660156 L 485.773438 288.089844 C 489.011719 288.898438 490.628906 291.324219 490.628906 293.753906 L 490.628906 322.082031 C 490.628906 325.320312 488.203125 327.746094 485.773438 327.746094 L 471.214844 330.175781 C 469.597656 335.839844 467.167969 340.695312 464.742188 345.554688 L 472.832031 357.695312 C 474.449219 360.121094 474.449219 363.359375 472.023438 365.789062 L 452.609375 385.210938 C 450.183594 387.640625 446.945312 387.640625 444.519531 386.023438 L 432.386719 377.929688 C 427.53125 380.355469 421.871094 382.785156 417.015625 384.402344 L 414.589844 398.972656 C 413.78125 402.210938 411.355469 403.828125 408.925781 403.828125 L 381.425781 403.828125 C 378.1875 403.828125 375.761719 401.398438 375.761719 398.972656 L 373.335938 384.402344 C 367.671875 382.785156 362.820312 380.355469 357.964844 377.929688 L 345.832031 386.023438 C 343.40625 387.640625 340.167969 387.640625 337.742188 385.210938 L 318.328125 365.789062 C 315.902344 363.359375 315.902344 360.121094 317.519531 357.695312 L 325.609375 345.554688 C 323.183594 340.695312 320.753906 335.03125 319.136719 330.175781 L 304.578125 327.746094 C 301.339844 326.9375 299.722656 324.511719 299.722656 322.082031 L 299.722656 294.5625 Z M 298.914062 294.5625 " fill-opacity="1" fill-rule="nonzero"/></g></svg>