<svg xmlns="http://www.w3.org/2000/svg" xmlns:xlink="http://www.w3.org/1999/xlink" width="1024" zoomAndPan="magnify" viewBox="0 0 768 767.999994" height="1024" preserveAspectRatio="xMidYMid meet" version="1.0"><defs><clipPath id="713b0c57da"><path d="M 299 550 L 468 550 L 468 638.796875 L 299 638.796875 Z M 299 550 " clip-rule="nonzero"/></clipPath><clipPath id="b7b7755688"><path d="M 227 628 L 541 628 L 541 638.796875 L 227 638.796875 Z M 227 628 " clip-rule="nonzero"/></clipPath><clipPath id="ca9bc9a16b"><path d="M 237 129.546875 L 531 129.546875 L 531 506 L 237 506 Z M 237 129.546875 " clip-rule="nonzero"/></clipPath></defs><path fill="#156595" d="M 608.03125 561.042969 L 159.671875 561.042969 C 158.445312 561.039062 157.222656 560.980469 156 560.859375 C 154.777344 560.734375 153.566406 560.554688 152.363281 560.316406 C 151.160156 560.074219 149.972656 559.777344 148.796875 559.417969 C 147.621094 559.0625 146.46875 558.648438 145.335938 558.175781 C 144.203125 557.707031 143.09375 557.179688 142.011719 556.601562 C 140.929688 556.019531 139.878906 555.390625 138.855469 554.707031 C 137.835938 554.023438 136.851562 553.292969 135.902344 552.515625 C 134.953125 551.734375 134.046875 550.910156 133.179688 550.042969 C 132.3125 549.171875 131.488281 548.261719 130.707031 547.3125 C 129.929688 546.363281 129.199219 545.378906 128.515625 544.355469 C 127.835938 543.335938 127.203125 542.28125 126.625 541.199219 C 126.046875 540.117188 125.519531 539.007812 125.050781 537.871094 C 124.582031 536.738281 124.167969 535.582031 123.808594 534.40625 C 123.453125 533.230469 123.152344 532.039062 122.914062 530.835938 C 122.671875 529.628906 122.492188 528.417969 122.371094 527.195312 C 122.25 525.96875 122.1875 524.746094 122.1875 523.515625 L 122.1875 243.890625 C 122.1875 242.664062 122.25 241.4375 122.371094 240.214844 C 122.492188 238.992188 122.671875 237.78125 122.914062 236.574219 C 123.152344 235.371094 123.453125 234.179688 123.808594 233.003906 C 124.167969 231.828125 124.578125 230.675781 125.050781 229.539062 C 125.519531 228.402344 126.042969 227.296875 126.625 226.210938 C 127.203125 225.128906 127.832031 224.078125 128.515625 223.054688 C 129.195312 222.035156 129.925781 221.046875 130.707031 220.097656 C 131.484375 219.148438 132.308594 218.238281 133.175781 217.371094 C 134.042969 216.503906 134.949219 215.679688 135.898438 214.898438 C 136.847656 214.117188 137.832031 213.386719 138.851562 212.703125 C 139.871094 212.023438 140.921875 211.390625 142.003906 210.8125 C 143.085938 210.230469 144.195312 209.707031 145.328125 209.234375 C 146.460938 208.765625 147.613281 208.351562 148.789062 207.992188 C 149.960938 207.636719 151.152344 207.335938 152.355469 207.09375 C 153.558594 206.855469 154.769531 206.671875 155.988281 206.550781 C 157.210938 206.429688 158.433594 206.367188 159.664062 206.367188 L 242.777344 206.367188 C 243.132812 206.367188 243.488281 206.402344 243.839844 206.472656 C 244.191406 206.542969 244.53125 206.644531 244.863281 206.78125 C 245.191406 206.921875 245.507812 207.089844 245.804688 207.289062 C 246.101562 207.488281 246.378906 207.710938 246.628906 207.964844 C 246.882812 208.21875 247.109375 208.496094 247.308594 208.792969 C 247.507812 209.089844 247.675781 209.40625 247.8125 209.738281 C 247.949219 210.066406 248.050781 210.410156 248.121094 210.761719 C 248.191406 211.113281 248.226562 211.46875 248.226562 211.824219 L 248.226562 275.636719 C 248.226562 281.820312 248.429688 287.101562 248.847656 291.828125 C 249.691406 305.375 251.675781 318.753906 254.804688 331.960938 C 257.933594 345.171875 262.160156 358.015625 267.484375 370.5 C 272.542969 382.679688 278.601562 394.339844 285.65625 405.476562 C 295.699219 421.398438 307.394531 435.988281 320.742188 449.25 C 329.988281 458.410156 339.898438 466.773438 350.484375 474.335938 C 361.066406 481.902344 372.1875 488.570312 383.839844 494.347656 C 395.492188 488.570312 406.613281 481.902344 417.195312 474.339844 C 427.777344 466.777344 437.691406 458.414062 446.933594 449.257812 C 458.375 438.058594 468.59375 425.832031 477.585938 412.578125 C 486.582031 399.324219 494.167969 385.308594 500.351562 370.527344 C 505.679688 358.0625 509.910156 345.238281 513.046875 332.046875 C 516.183594 318.859375 518.175781 305.5 519.027344 291.96875 C 519.453125 287.105469 519.65625 281.8125 519.65625 275.636719 L 519.65625 211.824219 C 519.65625 211.46875 519.691406 211.113281 519.761719 210.761719 C 519.832031 210.410156 519.933594 210.066406 520.070312 209.738281 C 520.207031 209.40625 520.375 209.089844 520.574219 208.792969 C 520.773438 208.496094 521 208.21875 521.253906 207.964844 C 521.503906 207.710938 521.78125 207.488281 522.078125 207.289062 C 522.375 207.089844 522.691406 206.921875 523.019531 206.78125 C 523.351562 206.644531 523.691406 206.542969 524.042969 206.472656 C 524.394531 206.402344 524.75 206.367188 525.105469 206.367188 L 608.03125 206.367188 C 609.257812 206.371094 610.480469 206.429688 611.699219 206.554688 C 612.921875 206.675781 614.132812 206.855469 615.335938 207.097656 C 616.539062 207.339844 617.726562 207.636719 618.902344 207.996094 C 620.074219 208.351562 621.226562 208.769531 622.363281 209.238281 C 623.496094 209.710938 624.601562 210.234375 625.683594 210.816406 C 626.765625 211.394531 627.816406 212.027344 628.835938 212.707031 C 629.855469 213.390625 630.839844 214.121094 631.785156 214.902344 C 632.734375 215.683594 633.644531 216.507812 634.511719 217.375 C 635.378906 218.242188 636.199219 219.152344 636.976562 220.101562 C 637.757812 221.050781 638.488281 222.039062 639.167969 223.058594 C 639.851562 224.078125 640.480469 225.132812 641.058594 226.214844 C 641.636719 227.296875 642.164062 228.40625 642.632812 229.542969 C 643.101562 230.675781 643.515625 231.832031 643.871094 233.007812 C 644.230469 234.179688 644.527344 235.371094 644.769531 236.574219 C 645.007812 237.78125 645.191406 238.992188 645.3125 240.214844 C 645.433594 241.4375 645.492188 242.664062 645.496094 243.890625 L 645.496094 523.515625 C 645.496094 524.746094 645.433594 525.96875 645.3125 527.191406 C 645.191406 528.414062 645.007812 529.628906 644.769531 530.832031 C 644.527344 532.035156 644.230469 533.226562 643.871094 534.402344 C 643.515625 535.578125 643.101562 536.730469 642.632812 537.867188 C 642.164062 539 641.636719 540.109375 641.058594 541.195312 C 640.480469 542.277344 639.851562 543.328125 639.167969 544.351562 C 638.488281 545.371094 637.757812 546.355469 636.976562 547.304688 C 636.199219 548.257812 635.378906 549.164062 634.511719 550.035156 C 633.644531 550.902344 632.734375 551.726562 631.785156 552.507812 C 630.839844 553.285156 629.855469 554.015625 628.835938 554.699219 C 627.816406 555.382812 626.765625 556.015625 625.683594 556.59375 C 624.601562 557.171875 623.496094 557.699219 622.363281 558.171875 C 621.226562 558.640625 620.074219 559.054688 618.902344 559.414062 C 617.726562 559.769531 616.539062 560.070312 615.335938 560.3125 C 614.132812 560.550781 612.921875 560.734375 611.699219 560.855469 C 610.480469 560.976562 609.257812 561.039062 608.03125 561.042969 Z M 159.671875 217.285156 C 158.800781 217.285156 157.933594 217.328125 157.066406 217.414062 C 156.203125 217.5 155.34375 217.625 154.488281 217.796875 C 153.636719 217.96875 152.792969 218.179688 151.957031 218.433594 C 151.125 218.683594 150.308594 218.976562 149.503906 219.3125 C 148.699219 219.644531 147.914062 220.019531 147.144531 220.429688 C 146.378906 220.839844 145.632812 221.285156 144.910156 221.769531 C 144.183594 222.253906 143.488281 222.773438 142.8125 223.328125 C 142.140625 223.878906 141.496094 224.464844 140.882812 225.078125 C 140.265625 225.695312 139.683594 226.339844 139.128906 227.015625 C 138.578125 227.6875 138.058594 228.386719 137.574219 229.109375 C 137.089844 229.835938 136.644531 230.582031 136.234375 231.351562 C 135.824219 232.117188 135.449219 232.90625 135.117188 233.710938 C 134.785156 234.515625 134.492188 235.335938 134.238281 236.167969 C 133.984375 237.003906 133.773438 237.847656 133.601562 238.703125 C 133.433594 239.554688 133.304688 240.417969 133.21875 241.285156 C 133.132812 242.152344 133.089844 243.019531 133.085938 243.890625 L 133.085938 523.515625 C 133.089844 524.386719 133.132812 525.257812 133.21875 526.125 C 133.304688 526.992188 133.433594 527.851562 133.601562 528.707031 C 133.773438 529.558594 133.984375 530.402344 134.238281 531.238281 C 134.488281 532.070312 134.785156 532.890625 135.117188 533.695312 C 135.449219 534.5 135.820312 535.285156 136.230469 536.054688 C 136.640625 536.824219 137.089844 537.570312 137.574219 538.292969 C 138.058594 539.019531 138.574219 539.71875 139.125 540.390625 C 139.679688 541.0625 140.261719 541.707031 140.878906 542.324219 C 141.492188 542.941406 142.136719 543.527344 142.808594 544.078125 C 143.480469 544.632812 144.179688 545.148438 144.902344 545.632812 C 145.625 546.117188 146.371094 546.566406 147.140625 546.976562 C 147.90625 547.386719 148.691406 547.757812 149.496094 548.09375 C 150.300781 548.425781 151.117188 548.722656 151.949219 548.972656 C 152.78125 549.226562 153.625 549.4375 154.480469 549.609375 C 155.332031 549.78125 156.191406 549.910156 157.058594 549.996094 C 157.925781 550.082031 158.792969 550.125 159.664062 550.125 L 608.019531 550.125 C 608.890625 550.125 609.757812 550.082031 610.621094 549.996094 C 611.488281 549.90625 612.347656 549.78125 613.203125 549.609375 C 614.054688 549.4375 614.898438 549.226562 615.730469 548.972656 C 616.5625 548.71875 617.378906 548.425781 618.183594 548.09375 C 618.988281 547.757812 619.773438 547.386719 620.539062 546.976562 C 621.308594 546.5625 622.054688 546.117188 622.777344 545.632812 C 623.5 545.148438 624.199219 544.628906 624.871094 544.078125 C 625.542969 543.523438 626.1875 542.9375 626.800781 542.324219 C 627.417969 541.707031 628 541.0625 628.554688 540.390625 C 629.105469 539.714844 629.621094 539.015625 630.105469 538.292969 C 630.589844 537.566406 631.035156 536.820312 631.449219 536.054688 C 631.859375 535.285156 632.230469 534.5 632.5625 533.695312 C 632.898438 532.890625 633.191406 532.070312 633.441406 531.238281 C 633.695312 530.402344 633.90625 529.558594 634.078125 528.707031 C 634.25 527.851562 634.375 526.988281 634.460938 526.125 C 634.550781 525.257812 634.59375 524.386719 634.59375 523.515625 L 634.59375 243.890625 C 634.59375 243.019531 634.550781 242.152344 634.460938 241.285156 C 634.375 240.417969 634.25 239.558594 634.078125 238.703125 C 633.90625 237.847656 633.695312 237.003906 633.441406 236.171875 C 633.191406 235.339844 632.894531 234.519531 632.5625 233.714844 C 632.230469 232.910156 631.859375 232.121094 631.449219 231.355469 C 631.035156 230.585938 630.589844 229.839844 630.105469 229.117188 C 629.621094 228.390625 629.105469 227.691406 628.554688 227.019531 C 628 226.347656 627.417969 225.703125 626.800781 225.085938 C 626.1875 224.46875 625.542969 223.886719 624.871094 223.332031 C 624.199219 222.78125 623.5 222.261719 622.777344 221.777344 C 622.054688 221.292969 621.308594 220.84375 620.539062 220.433594 C 619.773438 220.023438 618.988281 219.652344 618.183594 219.316406 C 617.378906 218.984375 616.5625 218.6875 615.730469 218.4375 C 614.898438 218.183594 614.054688 217.96875 613.203125 217.800781 C 612.347656 217.628906 611.488281 217.5 610.621094 217.414062 C 609.757812 217.328125 608.890625 217.285156 608.019531 217.285156 L 530.53125 217.285156 L 530.53125 275.636719 C 530.53125 282.132812 530.3125 287.742188 529.871094 292.792969 C 528.984375 306.914062 526.90625 320.855469 523.636719 334.621094 C 520.367188 348.386719 515.957031 361.777344 510.398438 374.785156 C 503.941406 390.226562 496.011719 404.867188 486.617188 418.714844 C 477.222656 432.5625 466.550781 445.339844 454.597656 457.039062 C 444.613281 466.929688 433.882812 475.925781 422.410156 484.03125 C 410.9375 492.136719 398.875 499.242188 386.222656 505.347656 C 385.472656 505.707031 384.683594 505.890625 383.847656 505.890625 C 383.015625 505.890625 382.222656 505.707031 381.476562 505.347656 C 368.820312 499.238281 356.75 492.128906 345.273438 484.019531 C 333.792969 475.90625 323.0625 466.90625 313.074219 457.011719 C 299.140625 443.167969 286.929688 427.941406 276.441406 411.328125 C 269.066406 399.679688 262.730469 387.488281 257.433594 374.757812 C 251.878906 361.730469 247.464844 348.328125 244.199219 334.546875 C 240.933594 320.765625 238.859375 306.804688 237.980469 292.667969 C 237.542969 287.753906 237.324219 282.164062 237.324219 275.652344 L 237.324219 217.285156 Z M 159.671875 217.285156 " fill-opacity="1" fill-rule="nonzero"/><path fill="#156595" d="M 645.496094 508.171875 L 645.496094 523.511719 C 645.496094 524.738281 645.433594 525.964844 645.3125 527.1875 C 645.191406 528.410156 645.011719 529.625 644.773438 530.828125 C 644.53125 532.035156 644.234375 533.222656 643.878906 534.398438 C 643.523438 535.574219 643.109375 536.730469 642.640625 537.867188 C 642.171875 539 641.648438 540.109375 641.070312 541.195312 C 640.492188 542.277344 639.859375 543.328125 639.179688 544.351562 C 638.5 545.375 637.769531 546.359375 636.992188 547.308594 C 636.214844 548.257812 635.390625 549.167969 634.523438 550.039062 C 633.65625 550.90625 632.75 551.734375 631.800781 552.511719 C 630.855469 553.292969 629.871094 554.023438 628.851562 554.707031 C 627.832031 555.390625 626.78125 556.023438 625.699219 556.605469 C 624.617188 557.183594 623.511719 557.710938 622.378906 558.183594 C 621.246094 558.65625 620.09375 559.070312 618.917969 559.429688 C 617.746094 559.785156 616.554688 560.085938 615.355469 560.328125 C 614.152344 560.570312 612.9375 560.753906 611.71875 560.875 C 610.496094 560.996094 609.273438 561.058594 608.046875 561.0625 L 159.679688 561.0625 C 158.449219 561.058594 157.226562 560.996094 156.003906 560.875 C 154.785156 560.753906 153.570312 560.570312 152.367188 560.328125 C 151.164062 560.085938 149.976562 559.785156 148.800781 559.429688 C 147.628906 559.070312 146.472656 558.65625 145.339844 558.183594 C 144.207031 557.710938 143.097656 557.1875 142.015625 556.605469 C 140.933594 556.027344 139.882812 555.394531 138.863281 554.710938 C 137.84375 554.027344 136.859375 553.296875 135.910156 552.515625 C 134.960938 551.734375 134.054688 550.910156 133.183594 550.042969 C 132.316406 549.171875 131.496094 548.261719 130.714844 547.3125 C 129.9375 546.363281 129.207031 545.375 128.523438 544.355469 C 127.839844 543.332031 127.210938 542.28125 126.632812 541.195312 C 126.050781 540.113281 125.527344 539.003906 125.058594 537.867188 C 124.585938 536.734375 124.171875 535.578125 123.816406 534.402344 C 123.457031 533.226562 123.15625 532.035156 122.917969 530.832031 C 122.675781 529.625 122.496094 528.410156 122.371094 527.1875 C 122.25 525.964844 122.1875 524.738281 122.1875 523.511719 L 122.1875 508.171875 C 122.1875 507.816406 122.21875 507.460938 122.289062 507.109375 C 122.359375 506.757812 122.464844 506.414062 122.601562 506.085938 C 122.738281 505.753906 122.90625 505.4375 123.105469 505.140625 C 123.304688 504.84375 123.527344 504.566406 123.78125 504.3125 C 124.035156 504.058594 124.3125 503.832031 124.609375 503.636719 C 124.90625 503.4375 125.21875 503.265625 125.550781 503.128906 C 125.882812 502.992188 126.222656 502.890625 126.574219 502.820312 C 126.925781 502.75 127.277344 502.714844 127.636719 502.714844 L 640.042969 502.714844 C 640.402344 502.714844 640.757812 502.75 641.109375 502.820312 C 641.457031 502.890625 641.800781 502.992188 642.128906 503.128906 C 642.460938 503.265625 642.773438 503.4375 643.074219 503.632812 C 643.371094 503.832031 643.644531 504.058594 643.898438 504.3125 C 644.152344 504.566406 644.378906 504.84375 644.578125 505.140625 C 644.777344 505.4375 644.945312 505.753906 645.082031 506.085938 C 645.21875 506.414062 645.320312 506.757812 645.390625 507.109375 C 645.460938 507.460938 645.496094 507.816406 645.496094 508.171875 Z M 645.496094 508.171875 " fill-opacity="1" fill-rule="nonzero"/><g clip-path="url(#713b0c57da)"><path fill="#156595" d="M 462.523438 639 L 305.285156 639 C 304.925781 639 304.570312 638.964844 304.21875 638.894531 C 303.871094 638.824219 303.527344 638.722656 303.199219 638.585938 C 302.867188 638.449219 302.554688 638.28125 302.253906 638.082031 C 301.957031 637.882812 301.683594 637.65625 301.429688 637.402344 C 301.175781 637.148438 300.949219 636.871094 300.75 636.574219 C 300.554688 636.277344 300.386719 635.960938 300.246094 635.632812 C 300.109375 635.300781 300.007812 634.957031 299.9375 634.605469 C 299.867188 634.253906 299.832031 633.902344 299.832031 633.542969 L 299.832031 555.617188 C 299.832031 555.257812 299.867188 554.902344 299.9375 554.550781 C 300.007812 554.199219 300.109375 553.859375 300.246094 553.527344 C 300.386719 553.195312 300.554688 552.882812 300.75 552.582031 C 300.949219 552.285156 301.175781 552.007812 301.429688 551.757812 C 301.683594 551.503906 301.957031 551.277344 302.253906 551.078125 C 302.554688 550.878906 302.867188 550.710938 303.199219 550.574219 C 303.527344 550.4375 303.871094 550.332031 304.21875 550.261719 C 304.570312 550.191406 304.925781 550.15625 305.285156 550.15625 L 462.523438 550.15625 C 462.878906 550.15625 463.234375 550.191406 463.585938 550.261719 C 463.9375 550.332031 464.277344 550.4375 464.609375 550.574219 C 464.9375 550.710938 465.253906 550.878906 465.550781 551.078125 C 465.847656 551.277344 466.125 551.503906 466.375 551.757812 C 466.628906 552.007812 466.855469 552.285156 467.054688 552.582031 C 467.253906 552.882812 467.421875 553.195312 467.558594 553.527344 C 467.695312 553.859375 467.800781 554.199219 467.867188 554.550781 C 467.9375 554.902344 467.972656 555.257812 467.972656 555.617188 L 467.972656 633.542969 C 467.972656 633.902344 467.9375 634.253906 467.867188 634.605469 C 467.800781 634.957031 467.695312 635.300781 467.558594 635.632812 C 467.421875 635.960938 467.253906 636.277344 467.054688 636.574219 C 466.855469 636.871094 466.628906 637.148438 466.375 637.402344 C 466.125 637.65625 465.847656 637.882812 465.550781 638.082031 C 465.253906 638.28125 464.9375 638.449219 464.609375 638.585938 C 464.277344 638.722656 463.9375 638.824219 463.585938 638.894531 C 463.234375 638.964844 462.878906 639 462.523438 639 Z M 310.734375 628.085938 L 457.070312 628.085938 L 457.070312 561.074219 L 310.734375 561.074219 Z M 310.734375 628.085938 " fill-opacity="1" fill-rule="nonzero"/></g><g clip-path="url(#b7b7755688)"><path fill="#156595" d="M 535.34375 639 L 232.460938 639 C 232.105469 639 231.75 638.964844 231.398438 638.894531 C 231.046875 638.824219 230.707031 638.722656 230.375 638.585938 C 230.046875 638.449219 229.730469 638.28125 229.433594 638.082031 C 229.136719 637.882812 228.859375 637.65625 228.609375 637.402344 C 228.355469 637.148438 228.128906 636.871094 227.929688 636.574219 C 227.730469 636.277344 227.5625 635.960938 227.425781 635.632812 C 227.289062 635.300781 227.1875 634.957031 227.117188 634.605469 C 227.046875 634.253906 227.011719 633.902344 227.011719 633.542969 C 227.011719 633.183594 227.046875 632.828125 227.117188 632.476562 C 227.1875 632.125 227.289062 631.785156 227.425781 631.453125 C 227.5625 631.121094 227.730469 630.808594 227.929688 630.511719 C 228.128906 630.210938 228.355469 629.9375 228.609375 629.683594 C 228.859375 629.429688 229.136719 629.203125 229.433594 629.003906 C 229.730469 628.804688 230.046875 628.636719 230.375 628.5 C 230.707031 628.363281 231.046875 628.257812 231.398438 628.1875 C 231.75 628.121094 232.105469 628.085938 232.460938 628.085938 L 535.34375 628.085938 C 535.703125 628.085938 536.054688 628.121094 536.40625 628.1875 C 536.757812 628.257812 537.097656 628.363281 537.429688 628.5 C 537.761719 628.636719 538.074219 628.804688 538.371094 629.003906 C 538.671875 629.203125 538.945312 629.429688 539.199219 629.683594 C 539.453125 629.9375 539.679688 630.210938 539.875 630.511719 C 540.074219 630.808594 540.242188 631.121094 540.378906 631.453125 C 540.515625 631.785156 540.621094 632.125 540.691406 632.476562 C 540.761719 632.828125 540.796875 633.183594 540.796875 633.542969 C 540.796875 633.902344 540.761719 634.253906 540.691406 634.605469 C 540.621094 634.957031 540.515625 635.300781 540.378906 635.632812 C 540.242188 635.960938 540.074219 636.277344 539.875 636.574219 C 539.679688 636.871094 539.453125 637.148438 539.199219 637.402344 C 538.945312 637.65625 538.671875 637.882812 538.371094 638.082031 C 538.074219 638.28125 537.761719 638.449219 537.429688 638.585938 C 537.097656 638.722656 536.757812 638.824219 536.40625 638.894531 C 536.054688 638.964844 535.703125 639 535.34375 639 Z M 535.34375 639 " fill-opacity="1" fill-rule="nonzero"/></g><path fill="#156595" d="M 393.9375 311.507812 C 393.175781 311.503906 392.417969 311.570312 391.667969 311.714844 C 390.921875 311.855469 390.191406 312.070312 389.488281 312.359375 C 388.78125 312.644531 388.109375 312.996094 387.472656 313.417969 C 386.832031 313.835938 386.242188 314.3125 385.699219 314.847656 C 385.15625 315.382812 384.671875 315.964844 384.242188 316.597656 C 383.8125 317.230469 383.449219 317.894531 383.152344 318.597656 C 382.855469 319.300781 382.628906 320.027344 382.476562 320.773438 C 382.320312 321.519531 382.238281 322.277344 382.234375 323.039062 C 382.226562 323.804688 382.296875 324.558594 382.4375 325.308594 C 382.582031 326.058594 382.792969 326.789062 383.082031 327.496094 C 383.367188 328.203125 383.71875 328.875 384.136719 329.515625 C 384.554688 330.152344 385.03125 330.742188 385.566406 331.289062 C 386.101562 331.832031 386.683594 332.316406 387.3125 332.746094 C 387.945312 333.175781 388.609375 333.539062 389.3125 333.839844 C 390.015625 334.136719 390.738281 334.363281 391.484375 334.519531 C 392.230469 334.671875 392.984375 334.753906 393.746094 334.761719 C 394.507812 334.765625 395.265625 334.699219 396.015625 334.554688 C 396.761719 334.414062 397.492188 334.199219 398.199219 333.910156 C 398.902344 333.625 399.574219 333.273438 400.214844 332.855469 C 400.851562 332.4375 401.441406 331.960938 401.984375 331.421875 C 402.527344 330.886719 403.015625 330.304688 403.441406 329.675781 C 403.871094 329.042969 404.234375 328.375 404.53125 327.675781 C 404.832031 326.972656 405.058594 326.246094 405.210938 325.5 C 405.367188 324.75 405.449219 323.996094 405.453125 323.234375 C 405.46875 322.46875 405.410156 321.707031 405.273438 320.953125 C 405.136719 320.199219 404.925781 319.46875 404.640625 318.753906 C 404.359375 318.042969 404.007812 317.367188 403.589844 316.726562 C 403.171875 316.085938 402.695312 315.488281 402.160156 314.945312 C 401.621094 314.398438 401.039062 313.910156 400.402344 313.480469 C 399.769531 313.050781 399.101562 312.691406 398.394531 312.394531 C 397.6875 312.101562 396.960938 311.878906 396.210938 311.730469 C 395.457031 311.578125 394.699219 311.507812 393.9375 311.507812 Z M 393.9375 311.507812 " fill-opacity="1" fill-rule="nonzero"/><path fill="#156595" d="M 372.9375 237.800781 C 372.9375 237.113281 372.972656 236.425781 373.039062 235.742188 C 373.105469 235.054688 373.207031 234.375 373.339844 233.703125 C 373.476562 233.027344 373.640625 232.359375 373.84375 231.699219 C 374.042969 231.042969 374.273438 230.394531 374.535156 229.757812 C 374.796875 229.125 375.09375 228.503906 375.417969 227.894531 C 375.742188 227.289062 376.09375 226.699219 376.476562 226.125 C 376.855469 225.554688 377.265625 225.003906 377.703125 224.46875 C 378.136719 223.9375 378.597656 223.429688 379.085938 222.941406 C 379.570312 222.457031 380.078125 221.992188 380.609375 221.558594 C 381.140625 221.121094 381.695312 220.710938 382.265625 220.328125 C 382.835938 219.945312 383.425781 219.59375 384.03125 219.269531 C 384.636719 218.945312 385.257812 218.648438 385.894531 218.386719 C 386.527344 218.125 387.175781 217.890625 387.832031 217.691406 C 388.492188 217.492188 389.15625 217.324219 389.832031 217.191406 C 390.503906 217.054688 391.183594 216.957031 391.867188 216.886719 C 392.550781 216.820312 393.238281 216.789062 393.925781 216.789062 C 394.613281 216.789062 395.296875 216.820312 395.980469 216.886719 C 396.667969 216.957031 397.34375 217.054688 398.019531 217.191406 C 398.695312 217.324219 399.359375 217.492188 400.015625 217.691406 C 400.675781 217.890625 401.320312 218.125 401.957031 218.386719 C 402.589844 218.648438 403.210938 218.945312 403.816406 219.269531 C 404.425781 219.59375 405.011719 219.945312 405.585938 220.328125 C 406.15625 220.710938 406.707031 221.121094 407.238281 221.558594 C 407.769531 221.992188 408.277344 222.457031 408.765625 222.941406 C 409.25 223.429688 409.710938 223.9375 410.148438 224.46875 C 410.585938 225.003906 410.992188 225.554688 411.375 226.125 C 411.757812 226.699219 412.109375 227.289062 412.433594 227.894531 C 412.757812 228.503906 413.050781 229.125 413.316406 229.757812 C 413.578125 230.394531 413.808594 231.042969 414.007812 231.699219 C 414.207031 232.359375 414.375 233.027344 414.507812 233.703125 C 414.644531 234.375 414.742188 235.054688 414.8125 235.742188 C 414.878906 236.425781 414.914062 237.113281 414.910156 237.800781 L 414.910156 240.847656 C 414.894531 241.550781 414.949219 242.25 415.074219 242.945312 C 415.195312 243.636719 415.386719 244.3125 415.644531 244.96875 C 415.902344 245.625 416.222656 246.246094 416.605469 246.839844 C 416.988281 247.429688 417.425781 247.976562 417.917969 248.480469 C 418.410156 248.984375 418.949219 249.4375 419.53125 249.832031 C 420.113281 250.230469 420.726562 250.5625 421.375 250.835938 C 422.023438 251.109375 422.691406 251.316406 423.382812 251.457031 C 424.074219 251.597656 424.769531 251.664062 425.472656 251.664062 C 426.175781 251.664062 426.875 251.597656 427.5625 251.457031 C 428.253906 251.316406 428.921875 251.109375 429.570312 250.835938 C 430.21875 250.5625 430.835938 250.230469 431.417969 249.832031 C 432 249.4375 432.535156 248.984375 433.027344 248.480469 C 433.519531 247.976562 433.957031 247.429688 434.339844 246.839844 C 434.722656 246.246094 435.042969 245.625 435.300781 244.96875 C 435.558594 244.3125 435.75 243.636719 435.875 242.945312 C 435.996094 242.25 436.050781 241.550781 436.035156 240.847656 L 436.035156 237.800781 C 436.019531 236.429688 435.9375 235.0625 435.789062 233.699219 C 435.640625 232.335938 435.425781 230.984375 435.144531 229.644531 C 434.863281 228.300781 434.519531 226.976562 434.109375 225.667969 C 433.699219 224.359375 433.226562 223.074219 432.695312 221.8125 C 432.160156 220.550781 431.5625 219.316406 430.910156 218.113281 C 430.253906 216.910156 429.542969 215.742188 428.773438 214.605469 C 428.003906 213.472656 427.183594 212.378906 426.308594 211.324219 C 425.433594 210.269531 424.507812 209.261719 423.535156 208.296875 C 422.5625 207.332031 421.542969 206.417969 420.480469 205.554688 C 419.417969 204.691406 418.316406 203.878906 417.171875 203.121094 C 416.03125 202.367188 414.855469 201.667969 413.644531 201.023438 C 412.4375 200.382812 411.199219 199.800781 409.933594 199.28125 C 408.664062 198.757812 407.378906 198.300781 406.066406 197.90625 C 404.753906 197.511719 403.425781 197.179688 402.085938 196.914062 C 400.742188 196.648438 399.386719 196.449219 398.027344 196.316406 C 396.664062 196.183594 395.296875 196.117188 393.929688 196.117188 C 392.558594 196.117188 391.191406 196.183594 389.832031 196.316406 C 388.46875 196.449219 387.113281 196.648438 385.769531 196.914062 C 384.429688 197.179688 383.101562 197.511719 381.789062 197.90625 C 380.480469 198.300781 379.191406 198.757812 377.921875 199.28125 C 376.65625 199.800781 375.417969 200.382812 374.210938 201.023438 C 373 201.667969 371.824219 202.367188 370.683594 203.121094 C 369.539062 203.878906 368.4375 204.691406 367.375 205.554688 C 366.3125 206.417969 365.292969 207.332031 364.320312 208.296875 C 363.347656 209.261719 362.421875 210.269531 361.546875 211.324219 C 360.671875 212.378906 359.851562 213.472656 359.082031 214.605469 C 358.3125 215.742188 357.601562 216.910156 356.945312 218.113281 C 356.292969 219.316406 355.695312 220.550781 355.160156 221.8125 C 354.628906 223.074219 354.15625 224.359375 353.746094 225.667969 C 353.335938 226.976562 352.992188 228.300781 352.710938 229.644531 C 352.429688 230.984375 352.214844 232.335938 352.066406 233.699219 C 351.917969 235.0625 351.835938 236.429688 351.820312 237.800781 L 351.820312 278.519531 L 372.9375 278.519531 Z M 372.9375 237.800781 " fill-opacity="1" fill-rule="nonzero"/><g clip-path="url(#ca9bc9a16b)"><path fill="#156595" d="M 526.703125 175.332031 L 383.066406 130.136719 C 381.957031 129.804688 380.851562 129.804688 379.742188 130.136719 L 241.0625 175.398438 C 240.519531 175.574219 240.011719 175.835938 239.546875 176.171875 C 239.082031 176.511719 238.679688 176.914062 238.34375 177.378906 C 238.003906 177.84375 237.746094 178.351562 237.570312 178.898438 C 237.390625 179.445312 237.304688 180.007812 237.304688 180.582031 L 237.304688 275.664062 C 237.304688 282.160156 237.519531 287.78125 237.957031 292.640625 C 238.84375 306.777344 240.917969 320.734375 244.183594 334.519531 C 247.453125 348.300781 251.863281 361.703125 257.417969 374.730469 C 262.730469 387.476562 269.070312 399.683594 276.441406 411.355469 C 286.960938 427.945312 299.171875 443.171875 313.074219 457.039062 C 323.070312 466.921875 333.804688 475.917969 345.285156 484.023438 C 356.765625 492.128906 368.832031 499.238281 381.484375 505.347656 C 382.222656 505.71875 383.003906 505.898438 383.828125 505.890625 C 384.671875 505.898438 385.472656 505.71875 386.226562 505.347656 C 398.875 499.242188 410.9375 492.140625 422.40625 484.03125 C 433.878906 475.925781 444.605469 466.929688 454.585938 457.039062 C 466.550781 445.347656 477.234375 432.574219 486.632812 418.726562 C 496.027344 404.878906 503.953125 390.230469 510.40625 374.785156 C 515.960938 361.777344 520.371094 348.390625 523.636719 334.628906 C 526.90625 320.863281 528.980469 306.921875 529.867188 292.804688 C 530.300781 287.726562 530.519531 282.160156 530.519531 275.664062 L 530.519531 180.570312 C 530.523438 179.988281 530.4375 179.417969 530.257812 178.863281 C 530.078125 178.308594 529.816406 177.792969 529.472656 177.324219 C 529.128906 176.851562 528.722656 176.445312 528.25 176.105469 C 527.773438 175.765625 527.261719 175.507812 526.703125 175.332031 Z M 466.480469 364.628906 C 466.480469 365.332031 466.445312 366.035156 466.375 366.734375 C 466.304688 367.433594 466.199219 368.128906 466.0625 368.820312 C 465.925781 369.507812 465.753906 370.191406 465.550781 370.863281 C 465.34375 371.535156 465.109375 372.199219 464.839844 372.847656 C 464.570312 373.5 464.269531 374.132812 463.9375 374.753906 C 463.605469 375.375 463.246094 375.976562 462.855469 376.5625 C 462.464844 377.148438 462.042969 377.710938 461.597656 378.253906 C 461.152344 378.796875 460.679688 379.320312 460.183594 379.816406 C 459.6875 380.3125 459.167969 380.785156 458.625 381.234375 C 458.082031 381.679688 457.515625 382.097656 456.933594 382.488281 C 456.347656 382.878906 455.746094 383.242188 455.125 383.574219 C 454.507812 383.90625 453.871094 384.207031 453.222656 384.476562 C 452.574219 384.746094 451.914062 384.980469 451.242188 385.1875 C 450.570312 385.390625 449.886719 385.5625 449.199219 385.699219 C 448.511719 385.839844 447.816406 385.941406 447.117188 386.011719 C 446.417969 386.082031 445.714844 386.117188 445.011719 386.117188 L 342.851562 386.117188 C 342.152344 386.117188 341.449219 386.082031 340.75 386.011719 C 340.050781 385.941406 339.355469 385.839844 338.667969 385.699219 C 337.980469 385.5625 337.296875 385.390625 336.625 385.1875 C 335.953125 384.980469 335.292969 384.746094 334.644531 384.476562 C 333.996094 384.207031 333.359375 383.90625 332.742188 383.574219 C 332.121094 383.242188 331.519531 382.878906 330.933594 382.488281 C 330.351562 382.097656 329.789062 381.679688 329.246094 381.230469 C 328.703125 380.785156 328.179688 380.3125 327.683594 379.816406 C 327.1875 379.320312 326.714844 378.796875 326.269531 378.253906 C 325.824219 377.710938 325.40625 377.144531 325.015625 376.5625 C 324.625 375.976562 324.265625 375.375 323.933594 374.753906 C 323.601562 374.132812 323.300781 373.496094 323.03125 372.847656 C 322.761719 372.199219 322.527344 371.535156 322.320312 370.863281 C 322.117188 370.191406 321.945312 369.507812 321.808594 368.820312 C 321.671875 368.128906 321.566406 367.433594 321.496094 366.734375 C 321.429688 366.035156 321.394531 365.332031 321.390625 364.628906 L 321.390625 300.007812 C 321.394531 299.347656 321.425781 298.6875 321.492188 298.027344 C 321.554688 297.371094 321.648438 296.714844 321.769531 296.066406 C 321.894531 295.417969 322.046875 294.773438 322.230469 294.140625 C 322.414062 293.503906 322.625 292.878906 322.867188 292.261719 C 323.109375 291.644531 323.378906 291.042969 323.675781 290.453125 C 323.972656 289.859375 324.292969 289.285156 324.644531 288.722656 C 324.992188 288.164062 325.367188 287.617188 325.769531 287.09375 C 326.167969 286.566406 326.59375 286.058594 327.039062 285.574219 C 327.488281 285.085938 327.957031 284.621094 328.445312 284.175781 C 328.933594 283.734375 329.445312 283.3125 329.972656 282.917969 C 330.503906 282.519531 331.046875 282.148438 331.609375 281.804688 C 332.175781 281.457031 332.75 281.136719 333.34375 280.847656 C 333.9375 280.554688 334.542969 280.289062 335.160156 280.054688 C 335.777344 279.816406 336.402344 279.609375 337.039062 279.433594 C 337.675781 279.253906 338.316406 279.105469 338.96875 278.988281 C 339.617188 278.867188 340.269531 278.78125 340.929688 278.722656 L 340.929688 237.785156 C 340.945312 236.058594 341.046875 234.335938 341.234375 232.617188 C 341.417969 230.902344 341.6875 229.195312 342.039062 227.507812 C 342.390625 225.816406 342.824219 224.144531 343.339844 222.496094 C 343.851562 220.847656 344.445312 219.230469 345.117188 217.636719 C 345.789062 216.046875 346.539062 214.492188 347.363281 212.976562 C 348.1875 211.457031 349.082031 209.984375 350.046875 208.554688 C 351.015625 207.125 352.050781 205.746094 353.152344 204.417969 C 354.253906 203.085938 355.417969 201.816406 356.644531 200.601562 C 357.871094 199.386719 359.152344 198.234375 360.492188 197.144531 C 361.828125 196.054688 363.21875 195.03125 364.65625 194.078125 C 366.09375 193.125 367.574219 192.242188 369.097656 191.433594 C 370.621094 190.621094 372.179688 189.890625 373.777344 189.234375 C 375.371094 188.574219 376.996094 188 378.648438 187.5 C 380.296875 187 381.96875 186.585938 383.664062 186.25 C 385.355469 185.914062 387.058594 185.664062 388.777344 185.496094 C 390.492188 185.328125 392.214844 185.242188 393.9375 185.242188 C 395.664062 185.242188 397.382812 185.328125 399.101562 185.496094 C 400.816406 185.664062 402.523438 185.914062 404.214844 186.25 C 405.90625 186.585938 407.578125 187 409.230469 187.5 C 410.882812 188 412.503906 188.574219 414.101562 189.234375 C 415.695312 189.890625 417.257812 190.621094 418.78125 191.433594 C 420.304688 192.242188 421.785156 193.125 423.222656 194.078125 C 424.660156 195.03125 426.046875 196.054688 427.386719 197.144531 C 428.726562 198.234375 430.007812 199.386719 431.234375 200.601562 C 432.460938 201.816406 433.621094 203.085938 434.726562 204.417969 C 435.828125 205.746094 436.863281 207.125 437.828125 208.554688 C 438.796875 209.984375 439.691406 211.457031 440.515625 212.976562 C 441.339844 214.492188 442.085938 216.046875 442.757812 217.636719 C 443.433594 219.230469 444.023438 220.847656 444.539062 222.496094 C 445.054688 224.144531 445.488281 225.816406 445.839844 227.507812 C 446.191406 229.195312 446.457031 230.902344 446.644531 232.617188 C 446.828125 234.335938 446.929688 236.058594 446.949219 237.785156 L 446.949219 240.832031 C 446.960938 241.542969 446.9375 242.25 446.875 242.960938 C 446.816406 243.667969 446.722656 244.371094 446.59375 245.070312 C 446.464844 245.769531 446.304688 246.460938 446.105469 247.144531 C 445.910156 247.828125 445.679688 248.5 445.414062 249.160156 C 445.148438 249.820312 444.855469 250.464844 444.527344 251.097656 C 444.199219 251.726562 443.839844 252.339844 443.453125 252.9375 C 443.0625 253.53125 442.644531 254.105469 442.199219 254.660156 C 441.753906 255.214844 441.28125 255.742188 440.785156 256.25 C 440.285156 256.757812 439.765625 257.238281 439.21875 257.691406 C 438.671875 258.148438 438.105469 258.574219 437.515625 258.972656 C 436.929688 259.371094 436.324219 259.738281 435.699219 260.078125 C 435.074219 260.417969 434.433594 260.722656 433.777344 261 C 433.125 261.273438 432.457031 261.515625 431.777344 261.722656 C 431.097656 261.929688 430.410156 262.105469 429.714844 262.246094 C 429.019531 262.386719 428.316406 262.492188 427.609375 262.5625 C 426.902344 262.632812 426.195312 262.667969 425.484375 262.667969 C 424.773438 262.667969 424.066406 262.632812 423.359375 262.5625 C 422.652344 262.492188 421.949219 262.386719 421.253906 262.246094 C 420.558594 262.105469 419.871094 261.929688 419.191406 261.722656 C 418.511719 261.515625 417.847656 261.273438 417.191406 261 C 416.535156 260.722656 415.894531 260.417969 415.269531 260.078125 C 414.648438 259.738281 414.039062 259.371094 413.453125 258.972656 C 412.863281 258.574219 412.296875 258.148438 411.75 257.691406 C 411.207031 257.238281 410.683594 256.757812 410.183594 256.25 C 409.6875 255.742188 409.214844 255.214844 408.769531 254.660156 C 408.324219 254.105469 407.90625 253.53125 407.519531 252.9375 C 407.128906 252.339844 406.769531 251.726562 406.441406 251.097656 C 406.113281 250.464844 405.820312 249.820312 405.554688 249.160156 C 405.292969 248.5 405.0625 247.828125 404.863281 247.144531 C 404.667969 246.460938 404.503906 245.769531 404.375 245.070312 C 404.246094 244.371094 404.152344 243.667969 404.09375 242.960938 C 404.035156 242.25 404.007812 241.542969 404.019531 240.832031 L 404.019531 237.785156 C 404.019531 237.121094 403.957031 236.464844 403.828125 235.816406 C 403.699219 235.164062 403.507812 234.53125 403.253906 233.921875 C 403 233.308594 402.6875 232.726562 402.320312 232.175781 C 401.953125 231.625 401.535156 231.113281 401.066406 230.644531 C 400.597656 230.175781 400.089844 229.757812 399.539062 229.390625 C 398.988281 229.019531 398.40625 228.710938 397.796875 228.457031 C 397.183594 228.203125 396.554688 228.011719 395.902344 227.882812 C 395.253906 227.75 394.597656 227.6875 393.9375 227.6875 C 393.273438 227.6875 392.617188 227.75 391.96875 227.882812 C 391.320312 228.011719 390.6875 228.203125 390.078125 228.457031 C 389.464844 228.710938 388.882812 229.019531 388.332031 229.390625 C 387.78125 229.757812 387.273438 230.175781 386.804688 230.644531 C 386.335938 231.113281 385.917969 231.625 385.550781 232.175781 C 385.183594 232.726562 384.871094 233.308594 384.617188 233.921875 C 384.367188 234.53125 384.175781 235.164062 384.046875 235.816406 C 383.917969 236.464844 383.851562 237.121094 383.851562 237.785156 L 383.851562 278.503906 L 445.011719 278.503906 C 445.714844 278.503906 446.417969 278.539062 447.117188 278.609375 C 447.816406 278.679688 448.511719 278.78125 449.199219 278.917969 C 449.890625 279.058594 450.570312 279.230469 451.246094 279.433594 C 451.917969 279.640625 452.578125 279.875 453.226562 280.144531 C 453.875 280.414062 454.511719 280.71875 455.132812 281.050781 C 455.75 281.382812 456.351562 281.742188 456.9375 282.132812 C 457.523438 282.527344 458.085938 282.945312 458.628906 283.390625 C 459.171875 283.839844 459.691406 284.3125 460.191406 284.808594 C 460.6875 285.308594 461.160156 285.828125 461.605469 286.371094 C 462.050781 286.917969 462.46875 287.480469 462.859375 288.066406 C 463.25 288.652344 463.609375 289.253906 463.941406 289.875 C 464.273438 290.496094 464.574219 291.132812 464.84375 291.78125 C 465.113281 292.433594 465.347656 293.09375 465.554688 293.769531 C 465.757812 294.441406 465.929688 295.125 466.066406 295.816406 C 466.203125 296.503906 466.304688 297.199219 466.375 297.902344 C 466.445312 298.601562 466.480469 299.304688 466.480469 300.007812 Z M 466.480469 364.628906 " fill-opacity="1" fill-rule="nonzero"/></g><path fill="#156595" d="M 444.992188 289.410156 L 342.835938 289.410156 C 342.144531 289.410156 341.457031 289.476562 340.777344 289.613281 C 340.101562 289.75 339.441406 289.953125 338.800781 290.21875 C 338.160156 290.488281 337.554688 290.8125 336.980469 291.199219 C 336.402344 291.585938 335.871094 292.027344 335.382812 292.519531 C 334.894531 293.011719 334.457031 293.542969 334.074219 294.121094 C 333.691406 294.699219 333.367188 295.308594 333.105469 295.953125 C 332.84375 296.59375 332.644531 297.253906 332.511719 297.9375 C 332.378906 298.617188 332.3125 299.304688 332.316406 299.996094 L 332.316406 364.621094 C 332.3125 365.316406 332.378906 366.003906 332.511719 366.683594 C 332.644531 367.363281 332.84375 368.027344 333.105469 368.667969 C 333.367188 369.308594 333.691406 369.917969 334.074219 370.496094 C 334.457031 371.074219 334.894531 371.609375 335.382812 372.101562 C 335.871094 372.59375 336.402344 373.03125 336.980469 373.417969 C 337.554688 373.804688 338.160156 374.132812 338.800781 374.398438 C 339.441406 374.667969 340.101562 374.867188 340.777344 375.003906 C 341.457031 375.140625 342.144531 375.210938 342.835938 375.210938 L 444.992188 375.210938 C 445.6875 375.210938 446.375 375.140625 447.054688 375.007812 C 447.734375 374.871094 448.394531 374.667969 449.035156 374.402344 C 449.679688 374.136719 450.289062 373.808594 450.863281 373.421875 C 451.441406 373.039062 451.976562 372.597656 452.464844 372.105469 C 452.957031 371.617188 453.394531 371.082031 453.78125 370.503906 C 454.167969 369.925781 454.492188 369.316406 454.757812 368.671875 C 455.023438 368.03125 455.226562 367.367188 455.363281 366.6875 C 455.496094 366.007812 455.566406 365.316406 455.566406 364.621094 L 455.566406 299.996094 C 455.566406 299.300781 455.496094 298.613281 455.363281 297.933594 C 455.226562 297.25 455.023438 296.589844 454.757812 295.945312 C 454.492188 295.304688 454.167969 294.695312 453.78125 294.117188 C 453.394531 293.539062 452.957031 293.003906 452.464844 292.511719 C 451.976562 292.023438 451.441406 291.582031 450.863281 291.195312 C 450.289062 290.808594 449.679688 290.484375 449.035156 290.21875 C 448.394531 289.949219 447.734375 289.75 447.054688 289.613281 C 446.375 289.476562 445.6875 289.410156 444.992188 289.410156 Z M 399.367188 344.972656 L 399.367188 353.597656 C 399.367188 353.957031 399.332031 354.308594 399.261719 354.660156 C 399.191406 355.011719 399.085938 355.355469 398.949219 355.6875 C 398.8125 356.015625 398.644531 356.332031 398.445312 356.628906 C 398.246094 356.925781 398.023438 357.203125 397.769531 357.457031 C 397.515625 357.710938 397.242188 357.9375 396.941406 358.136719 C 396.644531 358.335938 396.332031 358.503906 396 358.640625 C 395.667969 358.777344 395.328125 358.878906 394.976562 358.949219 C 394.625 359.019531 394.273438 359.054688 393.914062 359.054688 C 393.554688 359.054688 393.203125 359.019531 392.851562 358.949219 C 392.5 358.878906 392.160156 358.777344 391.828125 358.640625 C 391.496094 358.503906 391.183594 358.335938 390.886719 358.136719 C 390.589844 357.9375 390.3125 357.710938 390.058594 357.457031 C 389.808594 357.203125 389.582031 356.925781 389.382812 356.628906 C 389.183594 356.332031 389.015625 356.015625 388.878906 355.6875 C 388.742188 355.355469 388.636719 355.011719 388.566406 354.660156 C 388.496094 354.308594 388.464844 353.957031 388.464844 353.597656 L 388.464844 344.972656 C 387.585938 344.753906 386.722656 344.480469 385.878906 344.15625 C 385.035156 343.832031 384.214844 343.460938 383.414062 343.035156 C 382.613281 342.613281 381.84375 342.140625 381.101562 341.625 C 380.355469 341.109375 379.648438 340.550781 378.972656 339.945312 C 378.296875 339.34375 377.660156 338.703125 377.0625 338.023438 C 376.464844 337.34375 375.910156 336.628906 375.398438 335.882812 C 374.886719 335.136719 374.421875 334.363281 374.003906 333.558594 C 373.582031 332.753906 373.214844 331.929688 372.894531 331.082031 C 372.578125 330.234375 372.3125 329.371094 372.097656 328.492188 C 371.882812 327.613281 371.722656 326.722656 371.613281 325.824219 C 371.507812 324.921875 371.453125 324.019531 371.457031 323.113281 C 371.457031 322.210938 371.511719 321.308594 371.625 320.40625 C 371.734375 319.507812 371.898438 318.621094 372.117188 317.742188 C 372.335938 316.863281 372.605469 316 372.925781 315.152344 C 373.25 314.304688 373.621094 313.480469 374.042969 312.679688 C 374.464844 311.878906 374.929688 311.105469 375.445312 310.363281 C 375.960938 309.617188 376.519531 308.90625 377.117188 308.226562 C 377.71875 307.550781 378.359375 306.914062 379.035156 306.3125 C 379.714844 305.710938 380.425781 305.15625 381.167969 304.640625 C 381.914062 304.128906 382.6875 303.660156 383.488281 303.238281 C 384.289062 302.820312 385.113281 302.449219 385.960938 302.128906 C 386.804688 301.808594 387.667969 301.539062 388.546875 301.320312 C 389.425781 301.105469 390.3125 300.941406 391.210938 300.832031 C 392.109375 300.722656 393.007812 300.667969 393.914062 300.667969 C 394.820312 300.667969 395.71875 300.722656 396.617188 300.832031 C 397.515625 300.941406 398.40625 301.105469 399.28125 301.320312 C 400.160156 301.539062 401.023438 301.808594 401.867188 302.128906 C 402.714844 302.449219 403.539062 302.820312 404.339844 303.238281 C 405.140625 303.660156 405.914062 304.128906 406.660156 304.640625 C 407.402344 305.15625 408.113281 305.710938 408.792969 306.3125 C 409.46875 306.914062 410.109375 307.550781 410.710938 308.226562 C 411.308594 308.90625 411.867188 309.617188 412.382812 310.363281 C 412.898438 311.105469 413.367188 311.878906 413.785156 312.679688 C 414.207031 313.480469 414.578125 314.304688 414.902344 315.152344 C 415.222656 316 415.492188 316.863281 415.710938 317.742188 C 415.929688 318.621094 416.09375 319.507812 416.203125 320.40625 C 416.316406 321.308594 416.371094 322.210938 416.371094 323.113281 C 416.375 324.019531 416.320312 324.921875 416.214844 325.824219 C 416.109375 326.722656 415.945312 327.613281 415.730469 328.492188 C 415.519531 329.371094 415.25 330.234375 414.933594 331.082031 C 414.613281 331.929688 414.246094 332.753906 413.828125 333.558594 C 413.40625 334.363281 412.941406 335.136719 412.429688 335.882812 C 411.917969 336.628906 411.363281 337.34375 410.765625 338.023438 C 410.167969 338.703125 409.53125 339.34375 408.855469 339.945312 C 408.179688 340.550781 407.472656 341.109375 406.730469 341.625 C 405.984375 342.140625 405.214844 342.613281 404.414062 343.035156 C 403.617188 343.460938 402.792969 343.832031 401.949219 344.15625 C 401.105469 344.480469 400.242188 344.753906 399.367188 344.972656 Z M 399.367188 344.972656 " fill-opacity="1" fill-rule="nonzero"/></svg>