<svg xmlns="http://www.w3.org/2000/svg" xmlns:xlink="http://www.w3.org/1999/xlink" width="1024" zoomAndPan="magnify" viewBox="0 0 768 767.999994" height="1024" preserveAspectRatio="xMidYMid meet" version="1.0"><defs><clipPath id="a9f87f0204"><path d="M 121.582031 425 L 270 425 L 270 482 L 121.582031 482 Z M 121.582031 425 " clip-rule="nonzero"/></clipPath><clipPath id="a441fca39a"><path d="M 121.582031 481 L 270 481 L 270 541 L 121.582031 541 Z M 121.582031 481 " clip-rule="nonzero"/></clipPath><clipPath id="846337ec48"><path d="M 121.582031 539 L 270 539 L 270 603 L 121.582031 603 Z M 121.582031 539 " clip-rule="nonzero"/></clipPath><clipPath id="68a9c87b7a"><path d="M 121.582031 602 L 270 602 L 270 657 L 121.582031 657 Z M 121.582031 602 " clip-rule="nonzero"/></clipPath><clipPath id="ab9fe5bce3"><path d="M 499 425 L 646.582031 425 L 646.582031 482 L 499 482 Z M 499 425 " clip-rule="nonzero"/></clipPath><clipPath id="bad0d92a1e"><path d="M 499 481 L 646.582031 481 L 646.582031 541 L 499 541 Z M 499 481 " clip-rule="nonzero"/></clipPath><clipPath id="8bf1b09f36"><path d="M 499 539 L 646.582031 539 L 646.582031 603 L 499 603 Z M 499 539 " clip-rule="nonzero"/></clipPath><clipPath id="b3e3ffc0b4"><path d="M 499 602 L 646.582031 602 L 646.582031 656.5 L 499 656.5 Z M 499 602 " clip-rule="nonzero"/></clipPath></defs><g clip-path="url(#a9f87f0204)"><path fill="#156595" d="M 121.582031 453.5 C 121.582031 442.085938 149.683594 425.398438 195.390625 425.398438 C 241.097656 425.398438 269.199219 442.085938 269.199219 453.5 C 269.199219 464.964844 241.097656 481.652344 195.390625 481.652344 C 149.683594 482.519531 121.582031 465.785156 121.582031 453.5 " fill-opacity="1" fill-rule="nonzero"/></g><g clip-path="url(#a441fca39a)"><path fill="#156595" d="M 195.390625 500.078125 C 226.152344 500.078125 252.515625 493.066406 269.199219 481.652344 L 269.199219 512.363281 C 269.199219 523.828125 241.097656 540.515625 195.390625 540.515625 C 149.683594 540.515625 121.582031 523.828125 121.582031 512.363281 L 121.582031 481.652344 C 138.269531 493.066406 164.628906 500.078125 195.390625 500.078125 " fill-opacity="1" fill-rule="nonzero"/></g><g clip-path="url(#846337ec48)"><path fill="#156595" d="M 195.390625 558.070312 C 226.152344 558.070312 252.515625 551.058594 269.199219 539.644531 L 269.199219 574.757812 C 269.199219 586.222656 241.097656 602.910156 195.390625 602.910156 C 149.683594 602.910156 121.582031 586.222656 121.582031 574.757812 L 121.582031 539.644531 C 138.269531 551.058594 164.628906 558.070312 195.390625 558.070312 " fill-opacity="1" fill-rule="nonzero"/></g><g clip-path="url(#68a9c87b7a)"><path fill="#156595" d="M 195.390625 620.464844 C 226.152344 620.464844 252.515625 613.453125 269.199219 602.039062 L 269.199219 628.398438 C 269.199219 639.8125 241.097656 656.5 195.390625 656.5 C 149.683594 656.5 121.582031 639.8125 121.582031 628.398438 L 121.582031 602.039062 C 138.269531 613.453125 164.628906 620.464844 195.390625 620.464844 " fill-opacity="1" fill-rule="nonzero"/></g><g clip-path="url(#ab9fe5bce3)"><path fill="#156595" d="M 499.429688 453.5 C 499.429688 442.085938 527.578125 425.398438 573.238281 425.398438 C 618.945312 425.398438 647.046875 442.085938 647.046875 453.5 C 647.046875 464.964844 618.945312 481.652344 573.238281 481.652344 C 527.578125 481.652344 499.429688 465.785156 499.429688 453.5 " fill-opacity="1" fill-rule="nonzero"/></g><g clip-path="url(#bad0d92a1e)"><path fill="#156595" d="M 573.238281 500.078125 C 604 500.078125 630.359375 493.066406 647.097656 481.652344 L 647.097656 512.363281 C 647.097656 523.828125 618.945312 540.515625 573.238281 540.515625 C 527.578125 540.515625 499.429688 523.828125 499.429688 512.363281 L 499.429688 481.652344 C 516.117188 493.066406 542.476562 500.078125 573.238281 500.078125 " fill-opacity="1" fill-rule="nonzero"/></g><g clip-path="url(#8bf1b09f36)"><path fill="#156595" d="M 573.238281 558.070312 C 604 558.070312 630.359375 551.058594 647.097656 539.644531 L 647.097656 574.757812 C 647.097656 586.222656 618.945312 602.910156 573.238281 602.910156 C 527.578125 602.910156 499.429688 586.222656 499.429688 574.757812 L 499.429688 539.644531 C 516.117188 551.058594 542.476562 558.070312 573.238281 558.070312 " fill-opacity="1" fill-rule="nonzero"/></g><g clip-path="url(#b3e3ffc0b4)"><path fill="#156595" d="M 573.238281 620.464844 C 604 620.464844 630.359375 613.453125 647.097656 602.039062 L 647.097656 628.398438 C 647.097656 639.8125 618.945312 656.5 573.238281 656.5 C 527.578125 656.5 499.429688 639.8125 499.429688 628.398438 L 499.429688 602.039062 C 516.117188 613.453125 542.476562 620.464844 573.238281 620.464844 " fill-opacity="1" fill-rule="nonzero"/></g><path fill="#156595" d="M 205.9375 239.957031 L 205.9375 257.5625 L 187.507812 257.5625 C 176.964844 257.5625 168.160156 266.316406 168.160156 276.910156 L 168.160156 410.453125 C 162.019531 411.324219 155.875 412.242188 150.605469 413.984375 L 150.605469 276.910156 C 150.605469 256.691406 167.289062 240.003906 187.507812 240.003906 L 205.9375 239.957031 " fill-opacity="1" fill-rule="nonzero"/><path fill="#156595" d="M 286.804688 584.433594 L 482.742188 584.433594 L 482.742188 602.039062 L 286.804688 602.039062 L 286.804688 584.433594 " fill-opacity="1" fill-rule="nonzero"/><path fill="#156595" d="M 617.203125 276.910156 L 617.203125 413.113281 C 611.933594 411.324219 605.742188 410.453125 599.597656 409.582031 L 599.597656 276.910156 C 599.597656 266.316406 590.84375 257.5625 580.300781 257.5625 L 561.824219 257.5625 L 561.824219 239.957031 L 580.300781 239.957031 C 601.386719 239.957031 617.203125 256.691406 617.203125 276.910156 " fill-opacity="1" fill-rule="nonzero"/><path fill="#156595" d="M 501.21875 166.148438 L 337.785156 166.148438 C 332.464844 166.148438 328.984375 162.664062 328.984375 157.394531 C 328.984375 152.121094 332.464844 148.589844 337.785156 148.589844 L 500.347656 148.589844 C 505.621094 148.589844 509.101562 152.121094 509.101562 157.394531 C 509.972656 161.746094 505.621094 166.148438 501.21875 166.148438 Z M 314.039062 161.746094 C 314.039062 167.019531 310.507812 170.550781 305.234375 170.550781 C 299.960938 170.550781 296.433594 167.019531 296.433594 161.746094 L 296.433594 150.332031 C 296.433594 145.109375 299.960938 141.578125 305.234375 141.578125 C 310.507812 141.578125 314.039062 145.109375 314.039062 150.332031 Z M 276.261719 161.746094 C 276.261719 167.019531 272.730469 170.550781 267.460938 170.550781 C 262.1875 170.550781 258.65625 167.019531 258.65625 161.746094 L 258.65625 150.332031 C 258.65625 145.109375 262.1875 141.578125 267.460938 141.578125 C 272.730469 141.578125 276.261719 145.109375 276.261719 150.332031 Z M 536.335938 111.6875 L 232.296875 111.6875 C 227.023438 111.6875 223.492188 116.085938 223.492188 120.488281 L 223.492188 191.636719 C 223.492188 196.910156 227.023438 200.441406 232.296875 200.441406 L 536.335938 200.441406 C 540.734375 200.441406 545.136719 196.910156 545.136719 191.636719 L 545.136719 120.488281 C 545.136719 116.085938 540.734375 111.6875 536.335938 111.6875 " fill-opacity="1" fill-rule="nonzero"/><path fill="#156595" d="M 501.21875 266.367188 L 337.785156 266.367188 C 332.464844 266.367188 328.984375 262.835938 328.984375 257.5625 C 328.984375 252.289062 332.464844 248.761719 337.785156 248.761719 L 500.347656 248.761719 C 505.621094 248.761719 509.101562 252.289062 509.101562 257.5625 C 509.972656 261.964844 505.621094 266.367188 501.21875 266.367188 Z M 314.039062 261.964844 C 314.039062 267.238281 310.507812 270.71875 305.234375 270.71875 C 299.960938 270.71875 296.433594 267.238281 296.433594 261.964844 L 296.433594 250.550781 C 296.433594 245.277344 299.960938 241.746094 305.234375 241.746094 C 310.507812 241.746094 314.039062 245.277344 314.039062 250.550781 Z M 276.261719 261.964844 C 276.261719 267.238281 272.730469 270.71875 267.460938 270.71875 C 262.1875 270.71875 258.65625 267.238281 258.65625 261.964844 L 258.65625 250.550781 C 258.65625 245.277344 262.1875 241.746094 267.460938 241.746094 C 272.730469 241.746094 276.261719 245.277344 276.261719 250.550781 Z M 536.335938 211.855469 L 232.296875 211.855469 C 227.023438 211.855469 223.492188 215.386719 223.492188 220.660156 L 223.492188 291.808594 C 223.492188 296.207031 227.023438 300.609375 232.296875 300.609375 L 536.335938 300.609375 C 540.734375 300.609375 545.136719 296.207031 545.136719 291.808594 L 545.136719 220.660156 C 545.136719 216.257812 540.734375 211.855469 536.335938 211.855469 " fill-opacity="1" fill-rule="nonzero"/><path fill="#156595" d="M 501.21875 366.535156 L 337.785156 366.535156 C 332.464844 366.535156 328.984375 363.003906 328.984375 357.734375 C 328.984375 352.460938 332.464844 348.929688 337.785156 348.929688 L 500.347656 348.929688 C 505.621094 348.929688 509.101562 352.460938 509.101562 357.734375 C 509.972656 362.132812 505.621094 366.535156 501.21875 366.535156 Z M 314.039062 362.132812 C 314.039062 367.40625 310.507812 370.9375 305.234375 370.9375 C 299.960938 370.9375 296.433594 367.40625 296.433594 362.132812 L 296.433594 350.71875 C 296.433594 345.445312 299.960938 341.917969 305.234375 341.917969 C 310.507812 341.917969 314.039062 345.445312 314.039062 350.71875 Z M 276.261719 362.132812 C 276.261719 367.40625 272.730469 370.9375 267.460938 370.9375 C 262.1875 370.9375 258.65625 367.40625 258.65625 362.132812 L 258.65625 350.71875 C 258.65625 345.445312 262.1875 341.917969 267.460938 341.917969 C 272.730469 341.917969 276.261719 345.445312 276.261719 350.71875 Z M 536.335938 312.023438 L 232.296875 312.023438 C 227.023438 312.023438 223.492188 315.554688 223.492188 320.828125 L 223.492188 392.023438 C 223.492188 396.378906 227.023438 400.78125 232.296875 400.78125 L 536.335938 400.78125 C 540.734375 400.78125 545.136719 396.378906 545.136719 392.023438 L 545.136719 320.828125 C 545.136719 315.554688 540.734375 312.023438 536.335938 312.023438 " fill-opacity="1" fill-rule="nonzero"/></svg>