<svg xmlns="http://www.w3.org/2000/svg" xmlns:xlink="http://www.w3.org/1999/xlink" width="1024" zoomAndPan="magnify" viewBox="0 0 768 767.999994" height="1024" preserveAspectRatio="xMidYMid meet" version="1.0"><defs><clipPath id="f675c4acfd"><path d="M 494 413 L 648.699219 413 L 648.699219 495 L 494 495 Z M 494 413 " clip-rule="nonzero"/></clipPath><clipPath id="6886676830"><path d="M 467 123.699219 L 541 123.699219 L 541 179 L 467 179 Z M 467 123.699219 " clip-rule="nonzero"/></clipPath><clipPath id="3dcb6e438a"><path d="M 196 123.699219 L 450 123.699219 L 450 179 L 196 179 Z M 196 123.699219 " clip-rule="nonzero"/></clipPath><clipPath id="1a8b1cd971"><path d="M 123.699219 127 L 179 127 L 179 174 L 123.699219 174 Z M 123.699219 127 " clip-rule="nonzero"/></clipPath><clipPath id="8f16bebeee"><path d="M 123.699219 232 L 436 232 L 436 504 L 123.699219 504 Z M 123.699219 232 " clip-rule="nonzero"/></clipPath><clipPath id="447600dc8c"><path d="M 386 532 L 640 532 L 640 648.699219 L 386 648.699219 Z M 386 532 " clip-rule="nonzero"/></clipPath><clipPath id="cd8042553c"><path d="M 612 349 L 648.699219 349 L 648.699219 405 L 612 405 Z M 612 349 " clip-rule="nonzero"/></clipPath></defs><g clip-path="url(#f675c4acfd)"><path fill="#156595" d="M 630.597656 440.511719 C 630.597656 460.480469 614.359375 476.71875 594.390625 476.71875 L 576.285156 476.71875 L 576.285156 467.664062 C 576.285156 452.695312 564.101562 440.511719 549.132812 440.511719 L 521.976562 440.511719 C 507.003906 440.511719 494.820312 452.695312 494.820312 467.664062 C 494.820312 482.636719 507.003906 494.820312 521.976562 494.820312 L 594.390625 494.820312 C 624.34375 494.820312 648.699219 470.460938 648.699219 440.511719 L 648.699219 413.121094 C 643.414062 417.121094 637.324219 420.117188 630.597656 421.484375 Z M 630.597656 440.511719 " fill-opacity="1" fill-rule="nonzero"/></g><path fill="#156595" d="M 377.148438 377.148438 C 377.148438 392.121094 389.332031 404.304688 404.304688 404.304688 L 413.347656 404.304688 L 413.355469 349.992188 L 404.304688 349.992188 C 389.332031 349.992188 377.148438 362.175781 377.148438 377.148438 Z M 377.148438 377.148438 " fill-opacity="1" fill-rule="nonzero"/><g clip-path="url(#6886676830)"><path fill="#156595" d="M 540.078125 150.855469 C 540.078125 135.882812 527.894531 123.699219 512.925781 123.699219 L 467.664062 123.699219 L 467.664062 178.011719 L 512.925781 178.011719 C 527.894531 178.011719 540.078125 165.828125 540.078125 150.855469 Z M 540.078125 150.855469 " fill-opacity="1" fill-rule="nonzero"/></g><g clip-path="url(#3dcb6e438a)"><path fill="#156595" d="M 449.5625 159.90625 L 395.253906 159.90625 L 395.253906 141.804688 L 449.5625 141.804688 L 449.5625 123.699219 L 196.113281 123.699219 L 196.113281 141.804688 L 340.941406 141.804688 L 340.941406 159.90625 L 196.113281 159.90625 L 196.113281 178.011719 L 449.5625 178.011719 Z M 377.148438 159.90625 L 359.046875 159.90625 L 359.046875 141.804688 L 377.148438 141.804688 Z M 377.148438 159.90625 " fill-opacity="1" fill-rule="nonzero"/></g><path fill="#156595" d="M 577.691406 326.730469 L 577.84375 326.585938 C 585.472656 318.945312 590.625 309.371094 592.960938 298.851562 C 585.917969 261.050781 552.742188 232.320312 512.925781 232.320312 C 468 232.320312 431.457031 268.871094 431.457031 313.785156 L 431.457031 326.140625 C 444.53125 318.828125 454.304688 307.132812 459.085938 292.824219 L 462.832031 281.582031 L 488.339844 298.589844 C 496.976562 304.34375 504.269531 311.640625 510.019531 320.277344 L 512.914062 324.621094 C 518.84375 315.460938 521.976562 304.871094 521.976562 293.9375 L 521.976562 286.632812 L 540.078125 286.632812 L 540.078125 293.9375 C 540.078125 303.785156 537.988281 313.371094 534.277344 322.339844 L 540.078125 328.140625 L 541.636719 326.585938 C 552.308594 315.914062 558.183594 301.730469 558.183594 286.632812 L 576.285156 286.632812 C 576.285156 296.816406 574.230469 306.671875 570.375 315.761719 Z M 577.691406 326.730469 " fill-opacity="1" fill-rule="nonzero"/><g clip-path="url(#1a8b1cd971)"><path fill="#156595" d="M 126.296875 154.613281 L 178.011719 174 L 178.011719 127.710938 L 126.308594 147.097656 C 124.742188 147.6875 123.699219 149.191406 123.699219 150.855469 C 123.699219 152.519531 124.742188 154.023438 126.296875 154.613281 Z M 126.296875 154.613281 " fill-opacity="1" fill-rule="nonzero"/></g><path fill="#156595" d="M 395.253906 313.785156 L 395.253906 332.804688 C 398.175781 332.207031 401.207031 331.890625 404.304688 331.890625 L 413.355469 331.890625 L 413.355469 313.785156 C 413.355469 258.886719 458.027344 214.21875 512.925781 214.21875 C 567.824219 214.21875 612.492188 258.886719 612.492188 313.785156 L 612.492188 331.890625 L 621.546875 331.890625 C 624.640625 331.890625 627.671875 332.207031 630.597656 332.804688 L 630.597656 313.785156 C 630.597656 248.902344 577.808594 196.113281 512.925781 196.113281 C 448.042969 196.113281 395.253906 248.902344 395.253906 313.785156 Z M 395.253906 313.785156 " fill-opacity="1" fill-rule="nonzero"/><path fill="#156595" d="M 466.261719 525.363281 L 480.039062 566.691406 L 500.015625 541.71875 L 474.664062 522.691406 C 472.570312 523.253906 469.71875 524.09375 466.261719 525.363281 Z M 466.261719 525.363281 " fill-opacity="1" fill-rule="nonzero"/><path fill="#156595" d="M 485.769531 494.539062 L 485.769531 508.398438 L 512.925781 528.757812 L 534.050781 512.925781 L 521.976562 512.925781 C 507.121094 512.925781 494.023438 505.628906 485.769531 494.539062 Z M 485.769531 494.539062 " fill-opacity="1" fill-rule="nonzero"/><path fill="#156595" d="M 549.132812 422.40625 C 564.492188 422.40625 577.96875 430.191406 586.152344 441.933594 C 591.449219 431.75 594.398438 420.226562 594.398438 408.257812 L 594.398438 349.992188 L 594.390625 349.992188 L 594.390625 335.039062 C 593.140625 336.496094 592.007812 338.027344 590.640625 339.394531 L 574.882812 355.160156 L 560.101562 332.984375 C 558.335938 335.203125 556.472656 337.355469 554.4375 339.394531 L 540.078125 353.742188 L 525.191406 338.851562 L 512.925781 357.261719 L 494.957031 330.304688 C 490.539062 323.671875 484.945312 318.066406 478.300781 313.652344 L 471.765625 309.296875 C 464.246094 324.152344 452.222656 336.152344 437.0625 343.738281 L 431.457031 346.535156 L 431.457031 349.992188 L 431.449219 408.25 C 431.449219 435.859375 446.785156 460.6875 471.484375 473.035156 L 475.765625 475.167969 C 476.445312 475.515625 476.988281 476.019531 477.605469 476.4375 C 477.042969 473.59375 476.71875 470.671875 476.71875 467.664062 C 476.71875 442.710938 497.019531 422.40625 521.976562 422.40625 Z M 558.183594 368.097656 C 563.179688 368.097656 567.234375 372.152344 567.234375 377.148438 C 567.234375 382.144531 563.179688 386.199219 558.183594 386.199219 C 553.1875 386.199219 549.132812 382.144531 549.132812 377.148438 C 549.132812 372.152344 553.1875 368.097656 558.183594 368.097656 Z M 467.664062 386.199219 C 462.667969 386.199219 458.613281 382.144531 458.613281 377.148438 C 458.613281 372.152344 462.667969 368.097656 467.664062 368.097656 C 472.664062 368.097656 476.71875 372.152344 476.71875 377.148438 C 476.71875 382.144531 472.664062 386.199219 467.664062 386.199219 Z M 507.929688 421.457031 L 499.828125 405.261719 L 509.828125 400.257812 L 504.824219 390.253906 C 504.199219 388.996094 503.871094 387.613281 503.871094 386.210938 L 503.871094 368.105469 L 521.976562 368.105469 L 521.976562 384.074219 L 526.023438 392.164062 C 528.1875 396.492188 528.53125 401.398438 527 405.988281 C 525.46875 410.578125 522.246094 414.289062 517.921875 416.460938 Z M 507.929688 421.457031 " fill-opacity="1" fill-rule="nonzero"/><path fill="#156595" d="M 559.585938 525.363281 C 556.136719 524.09375 553.285156 523.253906 551.1875 522.699219 L 525.832031 541.726562 L 545.808594 566.699219 Z M 559.585938 525.363281 " fill-opacity="1" fill-rule="nonzero"/><g clip-path="url(#8f16bebeee)"><path fill="#156595" d="M 254.035156 502.667969 C 255.59375 504.75 259.476562 503.472656 259.476562 500.859375 L 259.476562 467.664062 L 435.648438 467.664062 C 424.5625 454.976562 417.175781 439.398438 414.53125 422.40625 L 404.304688 422.40625 C 379.347656 422.40625 359.046875 402.105469 359.046875 377.148438 C 359.046875 362.421875 366.222656 349.441406 377.148438 341.175781 L 377.148438 313.785156 C 377.148438 283.199219 387.429688 255.039062 404.558594 232.320312 L 132.753906 232.320312 C 127.753906 232.320312 123.699219 236.386719 123.699219 241.371094 L 123.699219 458.613281 C 123.699219 463.601562 127.753906 467.664062 132.753906 467.664062 L 227.796875 467.664062 Z M 340.941406 449.5625 L 232.320312 449.5625 L 232.320312 431.457031 L 340.941406 431.457031 Z M 340.941406 413.355469 L 232.320312 413.355469 L 232.320312 395.253906 L 340.941406 395.253906 Z M 205.164062 440.511719 L 150.855469 440.511719 L 150.855469 404.304688 L 205.164062 404.304688 Z M 150.855469 313.785156 L 150.855469 259.476562 L 259.476562 259.476562 L 259.476562 295.683594 L 331.890625 295.683594 L 331.890625 368.097656 L 223.269531 368.097656 L 223.269531 313.785156 Z M 150.855469 313.785156 " fill-opacity="1" fill-rule="nonzero"/></g><g clip-path="url(#447600dc8c)"><path fill="#156595" d="M 576.113281 532.984375 L 552.453125 603.984375 L 521.976562 565.886719 L 521.976562 630.597656 L 503.871094 630.597656 L 503.871094 565.886719 L 473.394531 603.984375 L 449.734375 532.984375 C 423.765625 547.492188 389.167969 579.652344 386.382812 648.699219 L 440.519531 648.699219 L 440.519531 594.390625 L 458.625 594.390625 L 458.625 648.699219 L 567.242188 648.699219 L 567.242188 594.390625 L 585.347656 594.390625 L 585.347656 648.699219 L 639.476562 648.699219 C 636.6875 579.652344 602.09375 547.492188 576.113281 532.984375 Z M 576.113281 532.984375 " fill-opacity="1" fill-rule="nonzero"/></g><path fill="#156595" d="M 304.734375 494.820312 C 304.734375 524.820312 280.421875 549.132812 250.425781 549.132812 C 220.425781 549.132812 196.113281 524.820312 196.113281 494.820312 C 196.113281 491.734375 196.394531 488.710938 196.882812 485.769531 L 159.90625 485.769531 L 159.90625 506.398438 L 170.289062 509.855469 L 171.503906 514.671875 C 173.441406 522.390625 176.5 529.761719 180.582031 536.578125 L 183.125 540.832031 L 178.226562 550.632812 L 194.601562 567.007812 L 204.414062 562.113281 L 208.667969 564.664062 C 215.476562 568.746094 222.84375 571.796875 230.574219 573.734375 L 235.378906 574.9375 L 238.847656 585.339844 L 262.011719 585.339844 L 265.476562 574.945312 L 270.285156 573.742188 C 278.015625 571.804688 285.382812 568.746094 292.1875 564.671875 L 296.445312 562.121094 L 306.253906 567.019531 L 322.628906 550.644531 L 317.734375 540.839844 L 320.277344 536.585938 C 324.359375 529.769531 327.417969 522.402344 329.355469 514.679688 L 330.570312 509.863281 L 340.941406 506.398438 L 340.941406 485.769531 L 303.964844 485.769531 C 304.453125 488.710938 304.734375 491.734375 304.734375 494.820312 Z M 304.734375 494.820312 " fill-opacity="1" fill-rule="nonzero"/><g clip-path="url(#cd8042553c)"><path fill="#156595" d="M 612.503906 349.992188 L 612.503906 404.304688 L 621.546875 404.304688 C 636.515625 404.304688 648.699219 392.121094 648.699219 377.148438 C 648.699219 362.175781 636.515625 349.992188 621.546875 349.992188 Z M 612.503906 349.992188 " fill-opacity="1" fill-rule="nonzero"/></g></svg>