<svg xmlns="http://www.w3.org/2000/svg" xmlns:xlink="http://www.w3.org/1999/xlink" width="1024" zoomAndPan="magnify" viewBox="0 0 768 767.999994" height="1024" preserveAspectRatio="xMidYMid meet" version="1.0"><defs><clipPath id="58a5bd4217"><path d="M 121.621094 121.621094 L 646.621094 121.621094 L 646.621094 646.621094 L 121.621094 646.621094 Z M 121.621094 121.621094 " clip-rule="nonzero"/></clipPath></defs><path fill="#156595" d="M 209.121094 252.871094 L 244.121094 252.871094 L 244.121094 287.871094 L 209.121094 287.871094 Z M 209.121094 305.371094 L 244.121094 305.371094 C 253.757812 305.371094 261.621094 297.507812 261.621094 287.871094 L 261.621094 252.871094 C 261.621094 243.230469 253.757812 235.371094 244.121094 235.371094 L 209.121094 235.371094 C 199.480469 235.371094 191.621094 243.230469 191.621094 252.871094 L 191.621094 287.871094 C 191.621094 297.507812 199.480469 305.371094 209.121094 305.371094 " fill-opacity="1" fill-rule="nonzero"/><path fill="#156595" d="M 209.121094 340.371094 L 244.121094 340.371094 L 244.121094 375.371094 L 209.121094 375.371094 Z M 209.121094 392.871094 L 244.121094 392.871094 C 253.757812 392.871094 261.621094 385.007812 261.621094 375.371094 L 261.621094 340.371094 C 261.621094 330.730469 253.757812 322.871094 244.121094 322.871094 L 209.121094 322.871094 C 199.480469 322.871094 191.621094 330.730469 191.621094 340.371094 L 191.621094 375.371094 C 191.621094 385.007812 199.480469 392.871094 209.121094 392.871094 " fill-opacity="1" fill-rule="nonzero"/><path fill="#156595" d="M 209.121094 427.871094 L 244.121094 427.871094 L 244.152344 462.871094 L 209.121094 462.871094 Z M 261.621094 462.871094 L 261.621094 427.871094 C 261.621094 418.230469 253.757812 410.371094 244.121094 410.371094 L 209.121094 410.371094 C 199.480469 410.371094 191.621094 418.230469 191.621094 427.871094 L 191.621094 462.871094 C 191.621094 472.507812 199.480469 480.371094 209.121094 480.371094 L 244.121094 480.371094 C 253.757812 480.371094 261.621094 472.507812 261.621094 462.871094 " fill-opacity="1" fill-rule="nonzero"/><g clip-path="url(#58a5bd4217)"><path fill="#156595" d="M 628.847656 531.671875 L 611.6875 538.542969 C 609.089844 539.601562 607.140625 541.824219 606.457031 544.558594 C 604.40625 552.761719 601.160156 560.589844 596.785156 567.835938 C 595.316406 570.226562 595.109375 573.234375 596.203125 575.800781 L 603.519531 592.820312 C 601.878906 594.734375 600.167969 596.582031 598.359375 598.359375 C 596.582031 600.136719 594.734375 601.878906 592.820312 603.519531 L 575.832031 596.203125 C 573.203125 595.109375 570.261719 595.316406 567.835938 596.785156 C 560.589844 601.160156 552.761719 604.40625 544.558594 606.457031 C 541.824219 607.140625 539.601562 609.089844 538.542969 611.6875 L 531.671875 628.847656 C 526.683594 629.222656 521.589844 629.222656 516.566406 628.847656 L 509.695312 611.6875 C 508.636719 609.089844 506.414062 607.140625 503.679688 606.457031 C 495.476562 604.40625 487.648438 601.160156 480.402344 596.785156 C 477.976562 595.316406 475.003906 595.109375 472.40625 596.203125 L 455.417969 603.519531 C 453.503906 601.878906 451.660156 600.136719 449.882812 598.359375 C 448.070312 596.582031 446.359375 594.734375 444.71875 592.820312 L 452.035156 575.800781 C 453.128906 573.234375 452.921875 570.226562 451.453125 567.835938 C 447.078125 560.589844 443.832031 552.761719 441.78125 544.558594 C 441.097656 541.824219 439.148438 539.601562 436.550781 538.542969 L 419.394531 531.671875 C 419.222656 529.179688 419.121094 526.648438 419.121094 524.121094 C 419.121094 521.589844 419.222656 519.0625 419.394531 516.566406 L 436.550781 509.695312 C 439.148438 508.636719 441.097656 506.414062 441.78125 503.679688 C 443.832031 495.476562 447.078125 487.648438 451.453125 480.402344 C 452.921875 477.976562 453.128906 475.003906 452.035156 472.40625 L 444.71875 455.417969 C 446.359375 453.503906 448.070312 451.660156 449.882812 449.882812 C 451.660156 448.070312 453.503906 446.359375 455.417969 444.71875 L 472.441406 452.035156 C 475.003906 453.128906 477.976562 452.921875 480.402344 451.453125 C 487.648438 447.078125 495.441406 443.832031 503.679688 441.78125 C 506.414062 441.097656 508.636719 439.148438 509.695312 436.550781 L 516.566406 419.394531 C 521.554688 419.015625 526.648438 419.015625 531.671875 419.394531 L 538.542969 436.550781 C 539.601562 439.148438 541.824219 441.097656 544.558594 441.78125 C 552.761719 443.832031 560.589844 447.078125 567.835938 451.453125 C 570.261719 452.921875 573.203125 453.128906 575.800781 452.035156 L 592.820312 444.71875 C 594.734375 446.359375 596.582031 448.070312 598.359375 449.882812 C 600.167969 451.660156 601.878906 453.503906 603.519531 455.417969 L 596.203125 472.40625 C 595.109375 475.003906 595.316406 477.976562 596.785156 480.402344 C 601.160156 487.648438 604.40625 495.476562 606.457031 503.679688 C 607.140625 506.414062 609.089844 508.636719 611.6875 509.695312 L 628.847656 516.566406 C 629.015625 519.0625 629.121094 521.589844 629.121094 524.121094 C 629.121094 526.648438 629.015625 529.179688 628.847656 531.671875 Z M 139.121094 567.871094 L 139.121094 217.871094 C 139.121094 206.488281 146.46875 196.847656 156.621094 193.226562 L 156.621094 559.121094 C 156.621094 568.757812 164.480469 576.621094 174.121094 576.621094 L 432.621094 576.621094 L 428.144531 587.113281 C 427.152344 589.367188 426.878906 591.761719 427.015625 594.121094 L 165.371094 594.121094 C 150.878906 594.121094 139.121094 582.363281 139.121094 567.871094 Z M 229.285156 176.648438 C 230.859375 175.007812 233.046875 174.121094 235.371094 174.121094 L 305.371094 174.121094 C 310.1875 174.121094 314.121094 170.1875 314.121094 165.371094 C 314.121094 160.550781 310.1875 156.621094 305.371094 156.621094 L 270.371094 156.621094 L 270.371094 147.871094 C 270.371094 143.050781 274.300781 139.121094 279.121094 139.121094 L 331.621094 139.121094 C 336.4375 139.121094 340.371094 143.050781 340.371094 147.871094 L 340.371094 165.371094 C 340.371094 170.1875 344.300781 174.121094 349.121094 174.121094 L 375.371094 174.121094 C 380.1875 174.121094 384.121094 178.050781 384.121094 182.871094 C 384.121094 185.195312 383.230469 187.347656 381.453125 189.089844 C 379.847656 190.730469 377.695312 191.621094 375.371094 191.621094 L 235.371094 191.621094 C 230.550781 191.621094 226.621094 187.6875 226.621094 182.871094 C 226.621094 180.546875 227.507812 178.390625 229.285156 176.648438 Z M 428.144531 461.125 L 434.191406 475.3125 C 430.773438 481.601562 428.039062 488.195312 425.988281 495.066406 L 411.703125 500.808594 C 406.269531 502.996094 402.609375 507.882812 402.0625 513.59375 C 401.757812 517.078125 401.621094 520.597656 401.621094 524.121094 C 401.621094 527.640625 401.757812 531.160156 402.0625 534.648438 C 402.609375 540.355469 406.269531 545.242188 411.738281 547.464844 L 425.988281 553.171875 C 426.605469 555.1875 427.390625 557.136719 428.109375 559.121094 L 174.121094 559.121094 L 174.121094 191.621094 L 210.726562 191.621094 C 214.347656 201.769531 223.988281 209.121094 235.371094 209.121094 L 375.371094 209.121094 C 382.445312 209.121094 389.074219 206.351562 393.792969 201.464844 C 396.664062 198.695312 398.714844 195.3125 400.046875 191.621094 L 436.621094 191.621094 L 436.621094 438.464844 C 434.464844 440.652344 432.347656 442.910156 430.363281 445.265625 C 426.707031 449.675781 425.851562 455.761719 428.144531 461.125 Z M 471.621094 217.871094 L 471.621094 432.621094 L 461.125 428.144531 C 458.871094 427.152344 456.476562 426.878906 454.121094 427.015625 L 454.121094 193.226562 C 464.269531 196.847656 471.621094 206.488281 471.621094 217.871094 Z M 636.503906 500.773438 L 622.25 495.066406 C 620.199219 488.195312 617.464844 481.601562 614.046875 475.3125 L 620.097656 461.125 C 622.386719 455.761719 621.53125 449.675781 617.839844 445.265625 C 615.617188 442.566406 613.226562 440.003906 610.730469 437.507812 C 608.234375 435.011719 605.671875 432.621094 602.972656 430.363281 C 598.5625 426.707031 592.480469 425.851562 587.113281 428.144531 L 572.929688 434.191406 C 566.640625 430.773438 560.042969 428.039062 553.171875 425.988281 L 547.429688 411.703125 C 545.242188 406.269531 540.355469 402.609375 534.648438 402.0625 C 527.675781 401.449219 520.566406 401.449219 513.59375 402.0625 C 507.882812 402.609375 502.996094 406.269531 500.773438 411.738281 L 495.066406 425.988281 C 493.050781 426.605469 491.101562 427.390625 489.121094 428.109375 L 489.121094 217.871094 C 489.121094 193.738281 469.5 174.121094 445.371094 174.121094 L 400.011719 174.121094 C 396.390625 163.96875 386.75 156.621094 375.371094 156.621094 L 357.871094 156.621094 L 357.871094 147.871094 C 357.871094 133.378906 346.113281 121.621094 331.621094 121.621094 L 279.121094 121.621094 C 264.628906 121.621094 252.871094 133.378906 252.871094 147.871094 L 252.871094 156.621094 L 235.371094 156.621094 C 228.261719 156.621094 221.664062 159.386719 216.945312 164.277344 C 214.074219 167.042969 212.023438 170.429688 210.691406 174.121094 L 165.371094 174.121094 C 141.238281 174.121094 121.621094 193.738281 121.621094 217.871094 L 121.621094 567.871094 C 121.621094 592 141.238281 611.621094 165.371094 611.621094 L 438.464844 611.621094 C 440.652344 613.773438 442.910156 615.890625 445.265625 617.839844 C 449.675781 621.53125 455.761719 622.386719 461.125 620.097656 L 475.3125 614.011719 C 481.601562 617.464844 488.195312 620.199219 495.066406 622.25 L 500.808594 636.535156 C 502.996094 641.972656 507.882812 645.628906 513.59375 646.140625 C 517.078125 646.484375 520.597656 646.621094 524.121094 646.621094 C 527.640625 646.621094 531.160156 646.484375 534.648438 646.140625 C 540.355469 645.628906 545.242188 641.972656 547.464844 636.503906 L 553.171875 622.25 C 560.042969 620.199219 566.640625 617.464844 572.929688 614.011719 L 587.113281 620.097656 C 592.480469 622.386719 598.5625 621.53125 602.972656 617.839844 C 605.671875 615.617188 608.234375 613.226562 610.730469 610.730469 C 613.226562 608.234375 615.617188 605.671875 617.875 602.972656 C 621.53125 598.5625 622.386719 592.480469 620.097656 587.113281 L 614.046875 572.929688 C 617.464844 566.671875 620.199219 560.042969 622.25 553.171875 L 636.503906 547.464844 C 636.535156 547.429688 636.535156 547.429688 636.535156 547.429688 C 641.972656 545.242188 645.628906 540.355469 646.175781 534.648438 C 646.484375 531.160156 646.621094 527.640625 646.621094 524.121094 C 646.621094 520.597656 646.484375 517.078125 646.175781 513.59375 C 645.628906 507.882812 641.972656 502.996094 636.503906 500.773438 " fill-opacity="1" fill-rule="nonzero"/></g><path fill="#156595" d="M 524.121094 576.621094 C 495.167969 576.621094 471.621094 553.070312 471.621094 524.121094 C 471.621094 495.167969 495.167969 471.621094 524.121094 471.621094 C 553.070312 471.621094 576.621094 495.167969 576.621094 524.121094 C 576.621094 553.070312 553.070312 576.621094 524.121094 576.621094 Z M 524.121094 454.121094 C 485.53125 454.121094 454.121094 485.53125 454.121094 524.121094 C 454.121094 562.707031 485.53125 594.121094 524.121094 594.121094 C 562.707031 594.121094 594.121094 562.707031 594.121094 524.121094 C 594.121094 485.53125 562.707031 454.121094 524.121094 454.121094 " fill-opacity="1" fill-rule="nonzero"/><path fill="#156595" d="M 524.121094 541.621094 C 514.480469 541.621094 506.621094 533.757812 506.621094 524.121094 C 506.621094 514.480469 514.480469 506.621094 524.121094 506.621094 C 533.757812 506.621094 541.621094 514.480469 541.621094 524.121094 C 541.621094 533.757812 533.757812 541.621094 524.121094 541.621094 Z M 524.121094 489.121094 C 504.808594 489.121094 489.121094 504.808594 489.121094 524.121094 C 489.121094 543.429688 504.808594 559.121094 524.121094 559.121094 C 543.429688 559.121094 559.121094 543.429688 559.121094 524.121094 C 559.121094 504.808594 543.429688 489.121094 524.121094 489.121094 " fill-opacity="1" fill-rule="nonzero"/><path fill="#156595" d="M 403.089844 239.265625 L 374.003906 282.878906 L 364.054688 272.933594 C 360.636719 269.515625 355.101562 269.515625 351.683594 272.933594 C 348.265625 276.351562 348.265625 281.886719 351.683594 285.304688 L 369.183594 302.804688 C 370.824219 304.445312 373.046875 305.371094 375.371094 305.371094 C 375.644531 305.371094 375.949219 305.371094 376.222656 305.335938 C 378.855469 305.0625 381.179688 303.660156 382.648438 301.472656 L 417.648438 248.972656 C 420.351562 244.941406 419.257812 239.503906 415.222656 236.839844 C 411.191406 234.140625 405.753906 235.234375 403.089844 239.265625 " fill-opacity="1" fill-rule="nonzero"/><path fill="#156595" d="M 287.871094 261.621094 L 331.621094 261.621094 C 336.4375 261.621094 340.371094 257.6875 340.371094 252.871094 C 340.371094 248.050781 336.4375 244.121094 331.621094 244.121094 L 287.871094 244.121094 C 283.050781 244.121094 279.121094 248.050781 279.121094 252.871094 C 279.121094 257.6875 283.050781 261.621094 287.871094 261.621094 " fill-opacity="1" fill-rule="nonzero"/><path fill="#156595" d="M 287.871094 296.621094 L 314.121094 296.621094 C 318.9375 296.621094 322.871094 292.6875 322.871094 287.871094 C 322.871094 283.050781 318.9375 279.121094 314.121094 279.121094 L 287.871094 279.121094 C 283.050781 279.121094 279.121094 283.050781 279.121094 287.871094 C 279.121094 292.6875 283.050781 296.621094 287.871094 296.621094 " fill-opacity="1" fill-rule="nonzero"/><path fill="#156595" d="M 403.089844 326.765625 L 374.003906 370.378906 L 364.054688 360.433594 C 360.636719 357.015625 355.101562 357.015625 351.683594 360.433594 C 348.265625 363.851562 348.265625 369.386719 351.683594 372.804688 L 369.183594 390.304688 C 370.824219 391.945312 373.046875 392.871094 375.371094 392.871094 C 375.644531 392.871094 375.949219 392.871094 376.222656 392.835938 C 378.855469 392.5625 381.179688 391.160156 382.648438 388.972656 L 417.648438 336.472656 C 420.351562 332.441406 419.257812 327.003906 415.222656 324.339844 C 411.191406 321.640625 405.753906 322.734375 403.089844 326.765625 " fill-opacity="1" fill-rule="nonzero"/><path fill="#156595" d="M 287.871094 349.121094 L 331.621094 349.121094 C 336.4375 349.121094 340.371094 345.1875 340.371094 340.371094 C 340.371094 335.550781 336.4375 331.621094 331.621094 331.621094 L 287.871094 331.621094 C 283.050781 331.621094 279.121094 335.550781 279.121094 340.371094 C 279.121094 345.1875 283.050781 349.121094 287.871094 349.121094 " fill-opacity="1" fill-rule="nonzero"/><path fill="#156595" d="M 287.871094 384.121094 L 314.121094 384.121094 C 318.9375 384.121094 322.871094 380.1875 322.871094 375.371094 C 322.871094 370.550781 318.9375 366.621094 314.121094 366.621094 L 287.871094 366.621094 C 283.050781 366.621094 279.121094 370.550781 279.121094 375.371094 C 279.121094 380.1875 283.050781 384.121094 287.871094 384.121094 " fill-opacity="1" fill-rule="nonzero"/><path fill="#156595" d="M 403.089844 414.265625 L 374.003906 457.878906 L 364.054688 447.933594 C 360.636719 444.515625 355.101562 444.515625 351.683594 447.933594 C 348.265625 451.351562 348.265625 456.886719 351.683594 460.304688 L 369.183594 477.804688 C 370.824219 479.445312 373.046875 480.371094 375.371094 480.371094 C 375.644531 480.371094 375.949219 480.335938 376.222656 480.335938 C 378.855469 480.0625 381.179688 478.660156 382.648438 476.472656 L 417.648438 423.972656 C 420.351562 419.941406 419.257812 414.503906 415.222656 411.839844 C 411.191406 409.140625 405.753906 410.234375 403.089844 414.265625 " fill-opacity="1" fill-rule="nonzero"/><path fill="#156595" d="M 287.871094 436.621094 L 331.621094 436.621094 C 336.4375 436.621094 340.371094 432.6875 340.371094 427.871094 C 340.371094 423.050781 336.4375 419.121094 331.621094 419.121094 L 287.871094 419.121094 C 283.050781 419.121094 279.121094 423.050781 279.121094 427.871094 C 279.121094 432.6875 283.050781 436.621094 287.871094 436.621094 " fill-opacity="1" fill-rule="nonzero"/><path fill="#156595" d="M 287.871094 471.621094 L 314.121094 471.621094 C 318.9375 471.621094 322.871094 467.6875 322.871094 462.871094 C 322.871094 458.050781 318.9375 454.121094 314.121094 454.121094 L 287.871094 454.121094 C 283.050781 454.121094 279.121094 458.050781 279.121094 462.871094 C 279.121094 467.6875 283.050781 471.621094 287.871094 471.621094 " fill-opacity="1" fill-rule="nonzero"/><path fill="#156595" d="M 357.871094 524.121094 L 244.121094 524.121094 C 239.300781 524.121094 235.371094 528.050781 235.371094 532.871094 C 235.371094 537.6875 239.300781 541.621094 244.121094 541.621094 L 357.871094 541.621094 C 362.6875 541.621094 366.621094 537.6875 366.621094 532.871094 C 366.621094 528.050781 362.6875 524.121094 357.871094 524.121094 " fill-opacity="1" fill-rule="nonzero"/></svg>