<svg xmlns="http://www.w3.org/2000/svg" xmlns:xlink="http://www.w3.org/1999/xlink" width="1024" zoomAndPan="magnify" viewBox="0 0 768 767.999994" height="1024" preserveAspectRatio="xMidYMid meet" version="1.0"><defs><clipPath id="69116e9ec6"><path d="M 475 301 L 646.667969 301 L 646.667969 474 L 475 474 Z M 475 301 " clip-rule="nonzero"/></clipPath><clipPath id="ff481f58c1"><path d="M 121.667969 220.042969 L 565 220.042969 L 565 547.792969 L 121.667969 547.792969 Z M 121.667969 220.042969 " clip-rule="nonzero"/></clipPath></defs><path fill="#156595" d="M 310.339844 465.855469 C 305.828125 465.855469 302.136719 469.542969 302.136719 474.046875 C 302.136719 478.554688 305.828125 482.242188 310.339844 482.242188 L 375.964844 482.242188 C 380.476562 482.242188 384.167969 478.554688 384.167969 474.046875 C 384.167969 469.542969 380.476562 465.855469 375.964844 465.855469 Z M 310.339844 465.855469 " fill-opacity="1" fill-rule="nonzero"/><path fill="#156595" d="M 195.90625 471.589844 C 195.90625 472.046875 195.859375 472.5 195.769531 472.949219 C 195.679688 473.398438 195.550781 473.832031 195.375 474.253906 C 195.199219 474.675781 194.984375 475.078125 194.730469 475.457031 C 194.476562 475.839844 194.1875 476.191406 193.863281 476.515625 C 193.539062 476.835938 193.1875 477.125 192.804688 477.378906 C 192.425781 477.632812 192.023438 477.847656 191.601562 478.023438 C 191.175781 478.199219 190.742188 478.332031 190.292969 478.421875 C 189.84375 478.507812 189.390625 478.554688 188.933594 478.554688 C 188.472656 478.554688 188.019531 478.507812 187.570312 478.421875 C 187.121094 478.332031 186.6875 478.199219 186.265625 478.023438 C 185.839844 477.847656 185.4375 477.632812 185.058594 477.378906 C 184.675781 477.125 184.324219 476.835938 184 476.515625 C 183.679688 476.191406 183.390625 475.839844 183.132812 475.457031 C 182.878906 475.078125 182.664062 474.675781 182.492188 474.253906 C 182.316406 473.832031 182.183594 473.398438 182.09375 472.949219 C 182.003906 472.5 181.960938 472.046875 181.960938 471.589844 C 181.960938 471.132812 182.003906 470.679688 182.09375 470.230469 C 182.183594 469.78125 182.316406 469.347656 182.492188 468.925781 C 182.664062 468.5 182.878906 468.101562 183.132812 467.71875 C 183.390625 467.339844 183.679688 466.988281 184 466.664062 C 184.324219 466.339844 184.675781 466.050781 185.058594 465.796875 C 185.4375 465.542969 185.839844 465.328125 186.265625 465.15625 C 186.6875 464.980469 187.121094 464.847656 187.570312 464.757812 C 188.019531 464.667969 188.472656 464.625 188.933594 464.625 C 189.390625 464.625 189.84375 464.667969 190.292969 464.757812 C 190.742188 464.847656 191.175781 464.980469 191.601562 465.15625 C 192.023438 465.328125 192.425781 465.542969 192.804688 465.796875 C 193.1875 466.050781 193.539062 466.339844 193.863281 466.664062 C 194.1875 466.988281 194.476562 467.339844 194.730469 467.71875 C 194.984375 468.101562 195.199219 468.5 195.375 468.925781 C 195.550781 469.347656 195.679688 469.78125 195.769531 470.230469 C 195.859375 470.679688 195.90625 471.132812 195.90625 471.589844 Z M 195.90625 471.589844 " fill-opacity="1" fill-rule="nonzero"/><path fill="#156595" d="M 168.425781 471.589844 C 168.425781 472.046875 168.378906 472.5 168.289062 472.949219 C 168.199219 473.398438 168.070312 473.832031 167.894531 474.253906 C 167.71875 474.675781 167.503906 475.078125 167.25 475.457031 C 166.996094 475.839844 166.707031 476.191406 166.382812 476.515625 C 166.058594 476.835938 165.707031 477.125 165.324219 477.378906 C 164.945312 477.632812 164.542969 477.847656 164.121094 478.023438 C 163.695312 478.199219 163.261719 478.332031 162.8125 478.421875 C 162.363281 478.507812 161.910156 478.554688 161.453125 478.554688 C 160.992188 478.554688 160.539062 478.507812 160.089844 478.421875 C 159.640625 478.332031 159.207031 478.199219 158.785156 478.023438 C 158.359375 477.847656 157.957031 477.632812 157.578125 477.378906 C 157.195312 477.125 156.84375 476.835938 156.519531 476.515625 C 156.199219 476.191406 155.910156 475.839844 155.652344 475.457031 C 155.398438 475.078125 155.183594 474.675781 155.011719 474.253906 C 154.835938 473.832031 154.703125 473.398438 154.613281 472.949219 C 154.523438 472.5 154.480469 472.046875 154.480469 471.589844 C 154.480469 471.132812 154.523438 470.679688 154.613281 470.230469 C 154.703125 469.78125 154.835938 469.347656 155.011719 468.925781 C 155.183594 468.5 155.398438 468.101562 155.652344 467.71875 C 155.910156 467.339844 156.199219 466.988281 156.519531 466.664062 C 156.84375 466.339844 157.195312 466.050781 157.578125 465.796875 C 157.957031 465.542969 158.359375 465.328125 158.785156 465.15625 C 159.207031 464.980469 159.640625 464.847656 160.089844 464.757812 C 160.539062 464.667969 160.992188 464.625 161.453125 464.625 C 161.910156 464.625 162.363281 464.667969 162.8125 464.757812 C 163.261719 464.847656 163.695312 464.980469 164.121094 465.15625 C 164.542969 465.328125 164.945312 465.542969 165.324219 465.796875 C 165.707031 466.050781 166.058594 466.339844 166.382812 466.664062 C 166.707031 466.988281 166.996094 467.339844 167.25 467.71875 C 167.503906 468.101562 167.71875 468.5 167.894531 468.925781 C 168.070312 469.347656 168.199219 469.78125 168.289062 470.230469 C 168.378906 470.679688 168.425781 471.132812 168.425781 471.589844 Z M 168.425781 471.589844 " fill-opacity="1" fill-rule="nonzero"/><g clip-path="url(#69116e9ec6)"><path fill="#156595" d="M 630.671875 362.203125 C 629.851562 360.15625 629.03125 358.515625 628.210938 356.46875 C 633.542969 348.683594 632.722656 338.03125 625.75 331.066406 L 617.546875 322.875 C 613.855469 319.1875 608.523438 317.136719 603.191406 317.136719 C 599.089844 317.136719 595.398438 318.367188 592.117188 320.414062 C 590.476562 319.597656 588.425781 318.777344 586.375 317.957031 C 584.324219 308.535156 576.121094 301.980469 566.6875 301.980469 L 555.203125 301.980469 C 545.359375 301.980469 537.15625 308.945312 535.515625 317.957031 C 533.464844 318.777344 531.824219 319.597656 529.773438 320.414062 C 526.492188 318.367188 522.800781 317.136719 518.699219 317.136719 C 513.367188 317.136719 508.035156 319.1875 504.34375 322.875 L 496.140625 331.066406 C 489.167969 338.03125 488.347656 348.683594 493.679688 356.46875 C 492.859375 358.105469 492.039062 360.15625 491.21875 362.203125 C 481.785156 364.25 475.222656 372.445312 475.222656 381.867188 L 475.222656 393.339844 C 475.222656 403.171875 482.195312 411.367188 491.21875 413.003906 C 492.039062 415.054688 492.859375 416.691406 493.679688 418.738281 C 491.628906 422.019531 490.398438 425.703125 490.398438 429.800781 C 490.398438 435.128906 492.449219 440.453125 496.140625 444.140625 L 504.34375 452.335938 C 508.035156 456.023438 513.367188 458.070312 518.699219 458.070312 C 522.800781 458.070312 526.492188 456.839844 529.773438 454.792969 C 531.414062 455.613281 533.464844 456.429688 535.515625 457.25 C 537.566406 466.671875 545.769531 473.226562 555.203125 473.226562 L 566.6875 473.226562 C 576.53125 473.226562 584.734375 466.261719 586.375 457.25 C 588.425781 456.429688 590.066406 455.613281 592.117188 454.792969 C 595.398438 456.839844 599.089844 458.070312 603.191406 458.070312 C 608.523438 458.070312 613.855469 456.023438 617.546875 452.335938 L 625.75 444.140625 C 629.441406 440.453125 631.492188 435.128906 631.492188 429.800781 C 631.492188 425.703125 630.261719 422.015625 628.210938 418.738281 C 629.03125 417.101562 629.851562 415.054688 630.671875 413.003906 C 640.105469 410.957031 646.667969 402.761719 646.667969 393.339844 L 646.667969 381.867188 C 646.667969 372.445312 639.695312 364.25 630.671875 362.203125 Z M 630.261719 393.75 C 630.261719 395.796875 628.621094 397.4375 626.570312 397.4375 L 617.957031 397.4375 C 616.316406 406.449219 613.035156 414.234375 608.113281 421.199219 L 614.265625 427.34375 C 615.90625 428.980469 615.90625 431.441406 614.265625 432.667969 L 606.0625 440.863281 C 605.242188 441.683594 604.421875 442.09375 603.191406 442.09375 C 601.960938 442.09375 601.140625 441.683594 600.320312 440.863281 L 594.167969 434.71875 C 587.195312 439.632812 578.992188 443.320312 570.378906 444.550781 L 570.378906 453.152344 C 570.378906 455.203125 568.738281 456.839844 566.6875 456.839844 L 555.203125 456.839844 C 553.152344 456.839844 551.511719 455.203125 551.511719 453.152344 L 551.511719 445.371094 C 542.488281 443.730469 534.695312 440.453125 527.722656 435.539062 L 520.75 441.273438 C 519.929688 442.09375 519.109375 442.5 517.878906 442.5 C 516.648438 442.5 516.238281 442.09375 515.417969 441.273438 L 507.214844 433.078125 C 505.574219 431.441406 505.574219 428.980469 507.214844 427.753906 L 513.367188 421.609375 C 508.445312 414.644531 504.753906 406.449219 503.523438 397.847656 L 494.910156 397.847656 C 492.859375 397.847656 491.21875 396.207031 491.21875 394.160156 L 491.21875 382.6875 C 491.21875 380.640625 492.859375 379 494.910156 379 L 503.113281 379 C 504.753906 369.988281 508.035156 362.203125 512.957031 355.238281 L 507.214844 348.273438 C 505.574219 346.636719 505.574219 344.175781 507.214844 342.949219 L 515.417969 334.753906 C 516.238281 333.933594 517.058594 333.527344 518.289062 333.527344 C 519.519531 333.527344 520.339844 333.933594 521.160156 334.753906 L 527.3125 340.898438 C 534.285156 335.984375 542.488281 332.296875 551.101562 331.066406 L 551.101562 322.464844 C 551.101562 320.414062 552.742188 318.777344 554.792969 318.777344 L 566.277344 318.777344 C 568.328125 318.777344 569.96875 320.414062 569.96875 322.464844 L 569.96875 330.65625 C 578.992188 332.296875 586.785156 335.574219 593.757812 340.488281 L 599.910156 334.34375 C 600.730469 333.527344 601.550781 333.117188 602.78125 333.117188 C 604.011719 333.117188 604.832031 333.527344 605.652344 334.34375 L 613.855469 342.539062 C 615.496094 344.175781 615.496094 346.636719 613.855469 347.863281 L 607.703125 354.007812 C 612.625 360.972656 616.316406 369.167969 617.546875 377.773438 L 626.160156 377.773438 C 628.210938 377.773438 629.851562 379.410156 629.851562 381.457031 L 629.851562 393.75 Z M 630.261719 393.75 " fill-opacity="1" fill-rule="nonzero"/></g><path fill="#156595" d="M 560.535156 355.238281 C 542.488281 355.238281 527.722656 369.988281 527.722656 388.011719 C 527.722656 406.039062 542.488281 420.789062 560.535156 420.789062 C 578.582031 420.789062 593.347656 406.039062 593.347656 388.011719 C 593.347656 369.988281 578.582031 355.238281 560.535156 355.238281 Z M 560.535156 404.402344 C 551.511719 404.402344 544.128906 397.027344 544.128906 388.011719 C 544.128906 379 551.511719 371.625 560.535156 371.625 C 569.558594 371.625 576.941406 379 576.941406 388.011719 C 576.941406 397.027344 569.558594 404.402344 560.535156 404.402344 Z M 560.535156 404.402344 " fill-opacity="1" fill-rule="nonzero"/><g clip-path="url(#ff481f58c1)"><path fill="#156595" d="M 310.339844 531.402344 L 285.730469 531.402344 C 281.21875 531.402344 277.527344 535.089844 277.527344 539.597656 C 277.527344 544.105469 281.21875 547.792969 285.730469 547.792969 L 400.574219 547.792969 C 405.085938 547.792969 408.777344 544.105469 408.777344 539.597656 C 408.777344 535.089844 405.085938 531.402344 400.574219 531.402344 L 375.964844 531.402344 L 375.964844 506.824219 L 540.027344 506.824219 C 550.691406 506.824219 559.714844 499.859375 563.40625 490.433594 L 554.792969 490.433594 C 553.152344 490.433594 551.511719 490.433594 549.871094 490.023438 C 549.871094 490.023438 549.460938 490.023438 549.460938 490.023438 C 547.820312 489.617188 546.589844 489.617188 544.949219 489.207031 C 543.71875 490.023438 542.078125 490.84375 540.4375 490.84375 L 146.277344 490.84375 C 141.765625 490.84375 138.074219 487.15625 138.074219 482.652344 L 138.074219 458.070312 L 485.066406 458.070312 L 483.835938 456.839844 C 476.863281 449.875 473.171875 440.863281 473.171875 431.03125 C 473.171875 428.980469 473.171875 426.523438 473.582031 424.476562 C 464.148438 417.921875 457.996094 406.859375 457.996094 394.570312 L 457.996094 383.097656 C 457.996094 370.808594 464.148438 359.746094 473.582031 353.191406 C 473.171875 351.140625 473.171875 348.683594 473.171875 346.636719 C 473.171875 336.804688 476.863281 327.789062 483.835938 320.824219 L 492.039062 312.632812 C 499.011719 305.667969 508.035156 301.980469 517.878906 301.980469 C 519.929688 301.980469 522.390625 301.980469 524.441406 302.390625 C 531.003906 292.964844 542.078125 286.820312 554.382812 286.820312 L 564.226562 286.820312 L 564.226562 244.625 C 564.226562 231.105469 553.152344 220.042969 539.617188 220.042969 L 146.277344 220.042969 C 132.742188 220.042969 121.667969 231.105469 121.667969 244.625 L 121.667969 482.242188 C 121.667969 495.761719 132.742188 506.824219 146.277344 506.824219 L 310.339844 506.824219 Z M 383.757812 296.652344 C 380.066406 294.195312 378.835938 289.28125 381.707031 285.183594 C 384.167969 281.496094 389.089844 280.265625 393.191406 282.722656 L 467.019531 331.886719 C 469.480469 333.527344 470.710938 335.984375 470.710938 338.851562 C 470.710938 341.71875 469.480469 344.175781 467.019531 345.816406 L 393.191406 394.976562 C 389.5 397.4375 384.167969 396.207031 381.707031 392.929688 C 379.246094 389.242188 380.066406 383.917969 383.757812 381.457031 L 447.332031 338.851562 Z M 318.953125 398.253906 L 351.765625 275.351562 C 352.996094 270.84375 357.507812 268.386719 362.019531 269.613281 C 366.53125 270.84375 368.992188 275.351562 367.761719 279.445312 L 334.949219 402.351562 C 334.128906 406.039062 330.847656 408.496094 327.15625 408.496094 C 326.335938 408.496094 325.925781 408.496094 325.105469 408.089844 C 320.183594 406.859375 317.722656 402.351562 318.953125 398.253906 Z M 219.695312 331.886719 L 293.523438 282.722656 C 297.214844 280.265625 302.546875 281.085938 305.007812 285.183594 C 307.46875 288.871094 306.648438 294.195312 302.957031 296.652344 L 238.972656 338.851562 L 302.546875 381.050781 C 306.238281 383.507812 307.46875 388.832031 304.597656 392.519531 C 302.136719 396.207031 296.804688 397.4375 293.113281 394.570312 L 219.285156 345.40625 C 216.824219 343.769531 215.59375 341.308594 215.59375 338.441406 C 216.003906 335.984375 217.234375 333.527344 219.695312 331.886719 Z M 326.746094 506.824219 L 359.558594 506.824219 L 359.558594 531.402344 L 326.746094 531.402344 Z M 326.746094 506.824219 " fill-opacity="1" fill-rule="nonzero"/></g></svg>